<?xml version="1.0" encoding="utf-8"?>
<!-- Generator: Adobe Illustrator 25.4.1, SVG Export Plug-In . SVG Version: 6.00 Build 0)  -->
<svg version="1.1" id="レイヤー_1" xmlns="http://www.w3.org/2000/svg" xmlns:xlink="http://www.w3.org/1999/xlink" x="0px"
	 y="0px" viewBox="0 0 269 20" style="enable-background:new 0 0 269 20;" xml:space="preserve">
<style type="text/css">
	.st0{fill-rule:evenodd;clip-rule:evenodd;}
</style>
<path id="path-1_00000100356146427870336130000003955022087910596008_" class="st0" d="M188.5,0v0.8h-2v13.5c0,3.3,1.9,4.4,3.8,4.4
	c2.8,0,4.7-1.7,4.7-4.5l0,0V0.8h-2.5V0h5.2v0.8h-1.8v13.3c0,3.1-2.2,5.1-5.6,5.1c-4.7,0-6.8-1.8-6.8-5.5l0,0v-13h-1.8V0H188.5z
	 M257.8,0.2l8.5,13.5h0.1V1h-2.3V0.2h4.9V1h-1.9v18h-0.8L255.1,1.5v16.9h2.4V19h-5.1v-0.7h1.9V1h-1.9V0.2H257.8z M8.3,0.2
	c4.9,0,6.5,2.2,6.5,4.5c0,2.5-2.2,4.3-6.3,4.6l0,0l6.8,8.9h1.4v0.6h-4.6L4.9,9.5H4.8v8.9h2.1V19H0v-0.6h1.8V0.8H0V0.2H8.3z
	 M32.4,0.2l6.4,18.2h1.2V19h-6.3v-0.6h2.1l-2.4-6.9h-6.1l-2.5,6.9h2.8V19h-5.2v-0.6H24l6.5-18.2H32.4z M243.5,0.2v5.9h-0.6
	c-1.5-5-2-5.4-3.4-5.4h-5.7v8h2.2c1.4,0,2.2-0.8,2.7-3.7l0,0h0.6v8.1h-0.6c-0.6-2.8-1.2-3.7-2.7-3.7l0,0h-2.2v8.8h5
	c2,0,2.6-0.8,4.3-6.3l0,0h0.7v7H229v-0.6h1.8V0.8H229V0.2H243.5z M55,0.2v0.6h-2.8v17.5l4.3,0c1.8,0,2.4-0.4,4.1-6.8l0,0h0.6V19
	H47.3v-0.6h1.8V0.8h-1.8V0.2H55z M213.8,0.2c4.9,0,6.5,2.2,6.5,4.5c0,2.5-2.2,4.3-6.3,4.6l0,0l6.8,8.9h1.3v0.6h-4.6l-7.2-9.5h-0.1
	v8.9h2.2V19h-6.9v-0.6h1.8V0.8h-1.8V0.2H213.8z M99.9,0.2V1H98v8h7.5V1h-1.8V0.2h6.7V1h-1.8v17.3h1.8V19h-6.7v-0.7h1.8V9.5H98v8.8
	h1.8V19h-6.7v-0.7h1.7V1h-1.7V0.2H99.9z M167.2,0.2l6.5,18.2h1.1V19h-6.3v-0.6h2.1l-2.4-6.9H162l-2.5,6.9h2.8V19h-5.2v-0.6h1.6
	l6.6-18.2H167.2z M144,0.2v0.6h-2.8v17.5l4.3,0c1.8,0,2.3-0.5,4.1-6.9l0,0h0.6V19h-13.9v-0.6h1.8V0.8h-1.8V0.2H144z M78.5,0.2
	c4.5,0,6.9,2.2,6.9,4.9s-2.2,4.7-6.9,4.7l0,0H75v8.5h2.6v0.5h-7.4v-0.6H72V0.8h-1.8V0.2H78.5z M30.4,3.2L30.4,3.2l-2.9,7.9h5.7
	L30.4,3.2z M165.1,3.2L165.1,3.2l-2.9,7.9h5.7L165.1,3.2z M77.9,1.1H75l0,0v8.4h2.7c3.1,0,4.5-0.8,4.5-4.1
	C82.2,2.8,80.9,1.1,77.9,1.1L77.9,1.1z M7.4,0.8H4.8V9h1.7c3.4,0,5-1.7,5-4.3C11.5,2.8,10.5,0.8,7.4,0.8L7.4,0.8z M212.8,0.8h-2.5V9
	h1.7c3.4,0,5-1.7,5-4.3C217,2.8,215.9,0.8,212.8,0.8L212.8,0.8z"/>
</svg>
