<?xml version="1.0" encoding="UTF-8"?>
<svg width="36px" height="23px" viewBox="0 0 36 23" version="1.1" xmlns="http://www.w3.org/2000/svg" xmlns:xlink="http://www.w3.org/1999/xlink">
    <title>B46D811C-D020-461B-9843-2DE18CA01690</title>
    <g id="8---Specs" stroke="none" stroke-width="1" fill="none" fill-rule="evenodd">
        <g id="8.5-Iconography" transform="translate(-549.000000, -2520.000000)" fill-rule="nonzero">
            <g id="amex" transform="translate(549.000000, 2520.000000)">
                <rect id="Rectangle-2" fill="#26A6D1" x="0" y="0" width="36" height="23" rx="2"></rect>
                <path d="M7.29923655,8.28750377 L4.08395088,15.4028243 L7.93309823,15.4028243 L8.41028002,14.2683458 L9.50101312,14.2683458 L9.9781949,15.4028243 L14.2150246,15.4028243 L14.2150246,14.5369558 L14.5925517,15.4028243 L16.7841731,15.4028243 L17.1617002,14.5186542 L17.1617002,15.4028243 L25.9731587,15.4028243 L27.0445858,14.297807 L28.0478281,15.4028243 L32.5735782,15.4119751 L29.3481373,11.865028 L32.5735782,8.28750377 L28.1180216,8.28750377 L27.0750513,9.37209913 L26.1033905,8.28750377 L16.5176833,8.28750377 L15.6945559,10.1240287 L14.8521225,8.28750377 L11.01101,8.28750377 L11.01101,9.12391104 L10.5837114,8.28750377 C10.5837114,8.28750377 7.29923655,8.28750377 7.29923655,8.28750377 Z M8.04402402,9.29788821 L9.92027691,9.29788821 L12.0529759,14.1228254 L12.0529759,9.29788821 L14.1083394,9.29788821 L15.7555986,12.7573445 L17.2737419,9.29788821 L19.3188386,9.29788821 L19.3188386,14.4035994 L18.0744387,14.4035994 L18.0642835,10.4027939 L16.2500776,14.4035994 L15.1369139,14.4035994 L13.3125528,10.4027939 L13.3125528,14.4035994 L10.7525551,14.4035994 L10.2672269,13.2589657 L7.64518219,13.2589657 L7.1608583,14.402595 L5.78923966,14.402595 C5.78923966,14.402595 8.04402402,9.29788821 8.04402402,9.29788821 Z M20.4573345,9.29788821 L25.5172916,9.29788821 L27.0648961,10.9695868 L28.6623838,9.29788821 L30.2099883,9.29788821 L27.8585624,11.8640236 L30.2099883,14.4005863 L28.5921903,14.4005863 L27.0445858,12.7094701 L25.4389517,14.4005863 L20.4573345,14.4005863 L20.4573345,9.29788821 L20.4573345,9.29788821 Z M8.95676252,10.1617479 L8.0929028,12.2008185 L9.81961789,12.2008185 L8.95676252,10.1617479 Z M21.7068678,10.3550311 L21.7068678,11.2870756 L24.4672908,11.2870756 L24.4672908,12.3259169 L21.7068678,12.3259169 L21.7068678,13.3434434 L24.8030813,13.3434434 L26.2417687,11.8447176 L24.8641239,10.3541383 L21.7068678,10.3541383 L21.7068678,10.3550311 Z" id="Shape" fill="#FFFFFF"></path>
            </g>
        </g>
    </g>
</svg>