<?xml version="1.0" encoding="UTF-8"?>
<svg width="74px" height="30px" viewBox="0 0 74 30" version="1.1" xmlns="http://www.w3.org/2000/svg" xmlns:xlink="http://www.w3.org/1999/xlink">
    <title>FA9452DD-24AA-4431-A87D-012D70665698</title>
    <g id="8---Specs" stroke="none" stroke-width="1" fill="none" fill-rule="evenodd">
        <g id="8.5-Iconography" transform="translate(-495.000000, -2649.000000)" fill="#000000" fill-rule="nonzero">
            <g id="Apple_Pay_logo" transform="translate(495.000000, 2649.000000)">
                <path d="M13.3503348,3.867745 C12.4940075,4.88106565 11.1238838,5.68030447 9.75376014,5.5661275 C9.58249468,4.19600381 10.2532844,2.74024738 11.0382511,1.84110371 C11.8945784,0.79923882 13.3931512,0.0570884872 14.6062816,0 C14.7490028,1.42721218 14.19239,2.82588011 13.3503348,3.867745 M14.5920094,5.83729781 C12.6081845,5.72312084 10.909802,6.96479543 9.96784197,6.96479543 C9.01160981,6.96479543 7.57012551,5.8943863 6.00019211,5.92293054 C3.9592787,5.95147479 2.0610865,7.10751665 1.01922161,8.94862036 C-1.12159666,12.6308278 0.462608859,18.0827783 2.53206652,21.0799239 C3.54538717,22.5642245 4.75851752,24.1912464 6.35699516,24.1341579 C7.86984007,24.0770695 8.46926918,23.1493815 10.2961008,23.1493815 C12.1372045,23.1493815 12.665273,24.1341579 14.2637506,24.1056137 C15.9193168,24.0770695 16.9611816,22.621313 17.9745023,21.1370124 C19.1305442,19.452902 19.6015242,17.811608 19.6300684,17.7259753 C19.6015242,17.697431 16.4331131,16.4843007 16.4045689,12.8306375 C16.3760247,9.77640343 18.9021902,8.320647 19.0163672,8.23501427 C17.589155,6.12274025 15.362704,5.8943863 14.5920094,5.83729781 M26.0525232,1.69838249 L26.0525232,23.9486204 L29.5063767,23.9486204 L29.5063767,16.3415794 L34.2875375,16.3415794 C38.6548068,16.3415794 41.723313,13.3444339 41.723313,9.00570885 C41.723313,4.66698382 38.7118953,1.69838249 34.4017145,1.69838249 L26.0525232,1.69838249 Z M29.5063767,4.60989534 L33.4882987,4.60989534 C36.4854443,4.60989534 38.1980989,6.20837298 38.1980989,9.01998097 C38.1980989,11.831589 36.4854443,13.4443387 33.4740266,13.4443387 L29.5063767,13.4443387 L29.5063767,4.60989534 L29.5063767,4.60989534 Z M48.0315908,24.1198858 C50.2009533,24.1198858 52.2133225,23.0209324 53.1267383,21.2797336 L53.1980989,21.2797336 L53.1980989,23.9486204 L56.3950541,23.9486204 L56.3950541,12.8734539 C56.3950541,9.66222645 53.8260722,7.59276879 49.8726945,7.59276879 C46.2047592,7.59276879 43.4930561,9.69077069 43.3931512,12.5737393 L46.5044737,12.5737393 C46.7613719,11.2036156 48.0315908,10.3044719 49.7727896,10.3044719 C51.8850637,10.3044719 53.0696498,11.2892483 53.0696498,13.1018078 L53.0696498,14.3292103 L48.759469,14.5861085 C44.7490028,14.8287345 42.5796403,16.4700285 42.5796403,19.3244529 C42.5796403,22.2074215 44.8203634,24.1198858 48.0315908,24.1198858 Z M48.9592787,21.4795433 C47.118175,21.4795433 45.947861,20.5946717 45.947861,19.2388202 C45.947861,17.8401522 47.0753586,17.0266413 49.230449,16.8981922 L53.0696498,16.6555661 L53.0696498,17.9115128 C53.0696498,19.9952426 51.2999067,21.4795433 48.9592787,21.4795433 Z M60.6624186,30 C64.0306393,30 65.6148448,28.715509 66.9992406,24.8192198 L73.0648924,7.80685062 L69.5539504,7.80685062 L65.4863957,20.9514748 L65.4150351,20.9514748 L61.3474804,7.80685062 L57.7366336,7.80685062 L63.5882035,24.0057088 L63.2742169,24.9904853 C62.7461483,26.6603235 61.889821,27.302569 60.362704,27.302569 C60.0915337,27.302569 59.5634652,27.2740247 59.3493834,27.2454805 L59.3493834,29.9143673 C59.5491931,29.9714558 60.4055204,30 60.6624186,30 Z" id="XMLID_34_"></path>
            </g>
        </g>
    </g>
</svg>