<?xml version="1.0" encoding="UTF-8"?>
<svg width="36px" height="23px" viewBox="0 0 36 23" version="1.1" xmlns="http://www.w3.org/2000/svg" xmlns:xlink="http://www.w3.org/1999/xlink">
    <title>598D0661-ECE5-46EA-8820-1BB261123C85</title>
    <g id="8---Specs" stroke="none" stroke-width="1" fill="none" fill-rule="evenodd">
        <g id="8.5-Iconography" transform="translate(-657.000000, -2520.000000)" fill-rule="nonzero">
            <g id="Discover" transform="translate(657.000000, 2520.000000)">
                <rect id="Rectangle-9" fill="#FFEEDA" x="0" y="0" width="36" height="23" rx="2"></rect>
                <path d="M36,10 L36,20.5 C36,21.8807119 34.9269856,23 33.6033553,23 L16,23 C25.5566207,20.6625 32.9802277,15.90625 36,10 Z" id="Rectangle-10" fill="#FFA821"></path>
                <circle id="Oval-6" fill="#FFA821" cx="17.5" cy="11.5" r="5.5"></circle>
                <path d="M14.0330753,15 C12.75008,14.0483819 12.0008831,12.5956253 12,11.0576935 C12.0209193,8.24700741 14.4557365,5.98356447 17.4405348,6 C18.7446803,5.99663942 20.0071581,6.43240724 21,7.22870587 C17.6003767,8.75686946 15.0625784,11.5876705 14.0330753,15 L14.0330753,15 Z" id="Oval-7" fill="#FA9A06"></path>
            </g>
        </g>
    </g>
</svg>