<?xml version="1.0" encoding="UTF-8"?>
<svg width="13px" height="14px" viewBox="0 0 13 14" version="1.1" xmlns="http://www.w3.org/2000/svg" xmlns:xlink="http://www.w3.org/1999/xlink">
    <title>EF1BBBC9-7A9B-4D9D-8B6D-C385E2155F9E</title>
    <g id="Misc" stroke="none" stroke-width="1" fill="none" fill-rule="evenodd">
        <g id="Gift-Box-Callout---Checkout" transform="translate(-1133.000000, -1002.000000)" stroke="#041E3A" stroke-width="0.820254195">
            <g id="Shopping-Bag---2-Items" transform="translate(952.000000, 504.000000)">
                <g id="Group-2" transform="translate(30.000000, 289.000000)">
                    <g id="Group-8" transform="translate(151.500000, 206.000000)">
                        <g id="Gift" transform="translate(0.000000, 4.000000)">
                            <path d="M0.403282422,2.27598053 L11.4517133,2.27598053 C11.8172378,2.55059964 12,2.71910025 12,2.78148236 C12,2.84386447 12,3.43852031 12,4.56544985 L11.6545709,4.88946649 L0.403282422,4.88946649 L0.130498187,4.56544985 L0,2.78148236 L0.403282422,2.27598053 Z" id="Path-5"></path>
                            <polygon id="Path-6" points="5.59227146 1.92072655 2.97190326 1.92072655 2.49299494 1.43590448 2.49299494 0.538956908 2.97190326 0 3.79535532 0 4.35841157 0.538956908"></polygon>
                            <polygon id="Path-6-Copy" transform="translate(7.471205, 0.960363) scale(-1, 1) translate(-7.471205, -0.960363) " points="9.02084306 1.92072655 6.40047484 1.92072655 5.92156654 1.43590448 5.92156654 0.538956908 6.40047484 0 7.22392693 0 7.78698317 0.538956908"></polygon>
                            <polygon id="Path-7" points="0.839089449 4.98684111 6.02084289 4.98684111 6.02084289 11.7553543 1.68059844 12 0.839089449 11.440098"></polygon>
                            <polygon id="Path-7-Copy" transform="translate(8.572823, 8.493421) scale(-1, 1) translate(-8.572823, -8.493421) " points="5.98194626 4.98684111 11.1636997 4.98684111 11.1636997 11.7553543 6.82345526 12 5.98194626 11.440098"></polygon>
                            <line x1="6" y1="2.27319828" x2="6" y2="5.3354806" id="Line-2" stroke-linecap="square"></line>
                        </g>
                    </g>
                </g>
            </g>
        </g>
    </g>
</svg>