<?xml version="1.0" encoding="UTF-8"?>
<svg width="65px" height="58px" viewBox="0 0 65 58" version="1.1" xmlns="http://www.w3.org/2000/svg" xmlns:xlink="http://www.w3.org/1999/xlink">
    <title>2D4FC5C9-1F80-422B-96E1-ED4384A00841</title>
    <g id="8---Specs" stroke="none" stroke-width="1" fill="none" fill-rule="evenodd">
        <g id="8.5-Iconography" transform="translate(-492.000000, -2870.000000)" fill-rule="nonzero">
            <g id="ideal-logo" transform="translate(492.124071, 2870.829762)">
                <g id="Group">
                    <path d="M0,4.22535211 L0,52.7746479 C0,55.0985915 1.90140845,57 4.22535211,57 L33.2323944,57 C55.1619718,57 64.6690141,44.7253521 64.6690141,28.4366197 C64.6690141,12.2323944 55.1619718,0 33.2323944,0 L4.22535211,0 C1.90140845,0 0,1.90140845 0,4.22535211 Z" id="Path" fill="#FFFFFF"></path>
                    <path d="M19.415493,11.915493 L19.415493,47.7887324 L35.028169,47.7887324 C49.2042254,47.7887324 55.3521127,39.7816901 55.3521127,28.4577465 C55.3521127,17.6197183 49.2042254,9.21126761 35.028169,9.21126761 L22.1197183,9.21126761 C20.6197183,9.21126761 19.415493,10.4366197 19.415493,11.915493 Z" id="Path" fill="#CC0066"></path>
                    <path d="M33.2323944,53.1338028 L8.00704225,53.1338028 C5.76760563,53.1338028 3.95070423,51.3169014 3.95070423,49.0774648 L3.95070423,7.94366197 C3.95070423,5.70422535 5.76760563,3.88732394 8.00704225,3.88732394 L33.2323944,3.88732394 C57.1690141,3.88732394 60.7394366,19.2887324 60.7394366,28.4577465 C60.7394366,44.3661972 50.9577465,53.1338028 33.2323944,53.1338028 Z M8.00704225,5.23943662 C6.50704225,5.23943662 5.3028169,6.44366197 5.3028169,7.94366197 L5.3028169,49.0774648 C5.3028169,50.5774648 6.50704225,51.7816901 8.00704225,51.7816901 L33.2323944,51.7816901 C50.0915493,51.7816901 59.3873239,43.5 59.3873239,28.4577465 C59.3873239,8.26056338 42.9929577,5.23943662 33.2323944,5.23943662 L8.00704225,5.23943662 Z" id="Shape" fill="#000000"></path>
                </g>
                <g id="Group" transform="translate(21.253521, 23.598592)" fill="#FFFFFF">
                    <path d="M3.65492958,0.0211267606 C4.20422535,0.0211267606 4.71126761,0.105633803 5.1971831,0.274647887 C5.68309859,0.443661972 6.08450704,0.718309859 6.44366197,1.05633803 C6.78169014,1.41549296 7.05633803,1.85915493 7.26760563,2.36619718 C7.45774648,2.8943662 7.56338028,3.50704225 7.56338028,4.22535211 C7.56338028,4.85915493 7.47887324,5.42957746 7.33098592,5.95774648 C7.16197183,6.48591549 6.92957746,6.95070423 6.61267606,7.33098592 C6.29577465,7.71126761 5.8943662,8.00704225 5.4084507,8.23943662 C4.92253521,8.45070423 4.35211268,8.57746479 3.6971831,8.57746479 L0,8.57746479 L0,0 L3.65492958,0 L3.65492958,0.0211267606 Z M3.52816901,7.01408451 C3.8028169,7.01408451 4.05633803,6.97183099 4.33098592,6.88732394 C4.58450704,6.8028169 4.81690141,6.65492958 5.00704225,6.44366197 C5.1971831,6.23239437 5.36619718,5.97887324 5.49295775,5.64084507 C5.61971831,5.3028169 5.68309859,4.92253521 5.68309859,4.43661972 C5.68309859,4.01408451 5.64084507,3.61267606 5.55633803,3.27464789 C5.47183099,2.93661972 5.32394366,2.61971831 5.13380282,2.38732394 C4.94366197,2.15492958 4.69014085,1.94366197 4.37323944,1.81690141 C4.05633803,1.69014085 3.67605634,1.62676056 3.21126761,1.62676056 L1.85915493,1.62676056 L1.85915493,7.03521127 L3.52816901,7.03521127 L3.52816901,7.01408451 Z" id="Shape"></path>
                    <polygon id="Path" points="15.1901408 0.0211267606 15.1901408 1.6056338 10.6690141 1.6056338 10.6690141 3.44366197 14.8309859 3.44366197 14.8309859 4.90140845 10.6690141 4.90140845 10.6690141 6.99295775 15.2957746 6.99295775 15.2957746 8.57746479 8.78873239 8.57746479 8.78873239 0 15.1901408 0"></polygon>
                    <path d="M21.6549296,0.0211267606 L24.8661972,8.59859155 L22.9014085,8.59859155 L22.2464789,6.6971831 L19.0352113,6.6971831 L18.3591549,8.59859155 L16.4577465,8.59859155 L19.6901408,0.0211267606 L21.6549296,0.0211267606 L21.6549296,0.0211267606 Z M21.7605634,5.28169014 L20.6830986,2.13380282 L20.6619718,2.13380282 L19.5422535,5.28169014 L21.7605634,5.28169014 Z" id="Shape"></path>
                    <polygon id="Path" points="27.9295775 0.0211267606 27.9295775 7.01408451 32.1126761 7.01408451 32.1126761 8.59859155 26.0492958 8.59859155 26.0492958 0.0211267606 27.9295775 0.0211267606"></polygon>
                </g>
                <circle id="Oval" fill="#000000" cx="12.3591549" cy="27.9084507" r="3.95070423"></circle>
                <path d="M15.3380282,47.7887324 L15.3380282,47.7887324 C12.0211268,47.7887324 9.35915493,45.1056338 9.35915493,41.8098592 L9.35915493,37.1408451 C9.35915493,35.4929577 10.6901408,34.1408451 12.3591549,34.1408451 L12.3591549,34.1408451 C14.0070423,34.1408451 15.3591549,35.471831 15.3591549,37.1408451 L15.3591549,47.7887324 L15.3380282,47.7887324 Z" id="Path" fill="#000000"></path>
            </g>
        </g>
    </g>
</svg>