<?xml version="1.0" encoding="UTF-8"?>
<svg width="104px" height="24px" viewBox="0 0 104 24" version="1.1" xmlns="http://www.w3.org/2000/svg" xmlns:xlink="http://www.w3.org/1999/xlink">
    <title>DBC86B36-5EA5-4E39-89D6-2F5E6CF275B3</title>
    <g id="8---Specs" stroke="none" stroke-width="1" fill="none" fill-rule="evenodd">
        <g id="8.5-Iconography" transform="translate(-495.000000, -2714.000000)" fill="#000000" fill-rule="nonzero">
            <g id="klarna" transform="translate(495.000000, 2714.322000)">
                <path d="M18.1315529,0 L13.0583581,0 C13.0583581,4.16320475 11.1473788,7.96241345 7.82591494,10.4648863 L5.8239367,11.9663699 L13.6043521,22.5677547 L19.9970326,22.5677547 L12.8308605,12.8081108 C16.2205737,9.44114738 18.1315529,4.89119683 18.1315529,0 Z" id="Path"></path>
                <rect id="Rectangle" x="0" y="0" width="5.18694362" height="22.5677547"></rect>
                <rect id="Rectangle" x="21.4985163" y="0" width="4.89119683" height="22.5677547"></rect>
                <path d="M69.2957468,6.52917903 C67.4302671,6.52917903 65.6557864,7.09792285 64.4727992,8.71315529 L64.4727992,6.96142433 L59.8318497,6.96142433 L59.8318497,22.5677547 L64.5410485,22.5677547 L64.5410485,14.3778437 C64.5410485,12.0118694 66.1335312,10.851632 68.0445104,10.851632 C70.0919881,10.851632 71.2749753,12.0801187 71.2749753,14.355094 L71.2749753,22.5905045 L75.9386746,22.5905045 L75.9386746,12.6488625 C75.9386746,9.00890208 73.049456,6.52917903 69.2957468,6.52917903 Z" id="Path"></path>
                <path d="M41.1770524,6.96142433 L41.1770524,7.96241345 C39.8575668,7.05242334 38.2650841,6.52917903 36.5361029,6.52917903 C31.9861523,6.52917903 28.3006924,10.214639 28.3006924,14.7645895 C28.3006924,19.3145401 31.9861523,23 36.5361029,23 C38.2650841,23 39.8575668,22.4767557 41.1770524,21.5667656 L41.1770524,22.5677547 L45.8407517,22.5677547 L45.8407517,6.96142433 L41.1770524,6.96142433 Z M36.9228487,18.768546 C34.5796241,18.768546 32.6913947,16.9713155 32.6913947,14.7645895 C32.6913947,12.5578635 34.5796241,10.760633 36.9228487,10.760633 C39.2660732,10.760633 41.1543027,12.5578635 41.1543027,14.7645895 C41.1543027,16.9713155 39.2660732,18.768546 36.9228487,18.768546 Z" id="Shape"></path>
                <path d="M53.0751731,8.98615232 L53.0751731,6.96142433 L48.297725,6.96142433 L48.297725,22.5677547 L53.0979228,22.5677547 L53.0979228,15.2878338 C53.0979228,12.8308605 55.7596439,11.5113749 57.6023739,11.5113749 C57.6251236,11.5113749 57.6478734,11.5113749 57.6478734,11.5113749 L57.6478734,6.96142433 C55.7596439,6.96142433 54.007913,7.78041543 53.0751731,8.98615232 Z" id="Path"></path>
                <path d="M90.4530168,6.96142433 L90.4530168,7.96241345 C89.1335312,7.05242334 87.5410485,6.52917903 85.8120673,6.52917903 C81.2621167,6.52917903 77.5766568,10.214639 77.5766568,14.7645895 C77.5766568,19.3145401 81.2621167,23 85.8120673,23 C87.5410485,23 89.1335312,22.4767557 90.4530168,21.5667656 L90.4530168,22.5677547 L95.1167161,22.5677547 L95.1167161,6.96142433 L90.4530168,6.96142433 Z M86.1988131,18.768546 C83.8555885,18.768546 81.9673591,16.9713155 81.9673591,14.7645895 C81.9673591,12.5578635 83.8555885,10.760633 86.1988131,10.760633 C88.5420376,10.760633 90.4302671,12.5578635 90.4302671,14.7645895 C90.4530168,16.9713155 88.5420376,18.768546 86.1988131,18.768546 Z" id="Shape"></path>
                <g id="Group" transform="translate(97.141444, 6.551929)">
                    <path d="M1.75074184,0.864490603 C1.75074184,0.636993076 1.56155265,0.50049456 1.26425535,0.50049456 L0.75074184,0.50049456 L0.75074184,1.6834817 L0.993985083,1.6834817 L0.993985083,1.2512364 L1.26425535,1.2512364 L1.48047157,1.6834817 L1.75074184,1.6834817 L1.5074986,1.20573689 C1.66966076,1.13748764 1.75074184,1.02373887 1.75074184,0.864490603 Z M1.26425535,1.04648863 L0.993985083,1.04648863 L0.993985083,0.682492582 L1.26425535,0.682492582 C1.42641752,0.682492582 1.5074986,0.75074184 1.5074986,0.864490603 C1.5074986,0.978239367 1.45344454,1.04648863 1.26425535,1.04648863 Z" id="Shape"></path>
                    <path d="M1.11473788,0 C0.50049456,0 0,0.50049456 0,1.11473788 C0.0227497527,1.72898121 0.50049456,2.22947577 1.11473788,2.22947577 C1.72898121,2.22947577 2.22947577,1.72898121 2.22947577,1.11473788 C2.22947577,0.50049456 1.72898121,0 1.11473788,0 Z M1.11473788,2.02472799 C0.614243323,2.02472799 0.227497527,1.61523244 0.227497527,1.11473788 C0.227497527,0.614243323 0.636993076,0.204747774 1.11473788,0.204747774 C1.61523244,0.204747774 2.00197824,0.614243323 2.00197824,1.11473788 C2.00197824,1.61523244 1.59248269,2.02472799 1.11473788,2.02472799 Z" id="Shape"></path>
                </g>
                <path d="M100.098912,17.0395648 C98.4836795,17.0395648 97.1641939,18.3590504 97.1641939,19.9742829 C97.1641939,21.5895153 98.4836795,22.909001 100.098912,22.909001 C101.714144,22.909001 103.03363,21.5895153 103.03363,19.9742829 C103.03363,18.3363007 101.714144,17.0395648 100.098912,17.0395648 Z" id="Path"></path>
            </g>
        </g>
    </g>
</svg>