<?xml version="1.0" encoding="utf-8"?>
<!-- Generator: Adobe Illustrator 24.0.0, SVG Export Plug-In . SVG Version: 6.00 Build 0)  -->
<svg version="1.1" id="Layer_1" xmlns="http://www.w3.org/2000/svg" xmlns:xlink="http://www.w3.org/1999/xlink" x="0px" y="0px"
	 viewBox="0 0 206.2 201.4" style="enable-background:new 0 0 206.2 201.4;" xml:space="preserve">
<style type="text/css">
	.st0{fill:#1877F2;}
	.st1{fill:#FFFFFF;}
</style>
<title>FindUs-FB-RGB-Blk1024</title>
<g>
	<g>
		<path class="st0" d="M204,100.9C204,45.5,159,0.5,103.6,0.5S3.2,45.5,3.2,100.9c0,50.1,36.7,91.7,84.8,99.2v-70.2H62.3v-29H88
			V78.8c0-25.1,14.9-39.1,37.8-39.1c11,0,22.3,2.1,22.3,2.1v24.5h-12.6c-12.5,0-16.4,7.9-16.4,15.7v18.8H147l-4.4,29h-23.5V200
			C167.3,192.6,204,151,204,100.9z"/>
		<path class="st1" d="M142.7,130l4.4-29h-27.9V82.2c0-8,4-15.7,16.4-15.7h12.6V41.9c0,0-11.4-2.1-22.3-2.1c-23,0-37.8,14-37.8,39.1
			V101H62.4v29h25.6v70.2c5.1,0.8,10.3,1.2,15.6,1.2s10.5-0.4,15.6-1.2V130H142.7z"/>
	</g>
</g>
</svg>
