<?xml version="1.0" encoding="utf-8"?>
<!-- Generator: Adobe Illustrator 24.0.0, SVG Export Plug-In . SVG Version: 6.00 Build 0)  -->
<svg version="1.1" id="Layer_1" xmlns="http://www.w3.org/2000/svg" xmlns:xlink="http://www.w3.org/1999/xlink" x="0px" y="0px"
	 viewBox="0 0 206.2 201.4" style="enable-background:new 0 0 206.2 201.4;" xml:space="preserve">
<style type="text/css">
	.st0{fill-rule:evenodd;clip-rule:evenodd;fill:#4285F4;}
	.st1{fill-rule:evenodd;clip-rule:evenodd;fill:#34A853;}
	.st2{fill-rule:evenodd;clip-rule:evenodd;fill:#FBBC05;}
	.st3{fill-rule:evenodd;clip-rule:evenodd;fill:#EA4335;}
	.st4{fill:none;}
</style>
<title>FindUs-FB-RGB-Blk1024</title>
<g id="Google-Button">
	<g id="_x39_-PATCH" transform="translate(-608.000000, -160.000000)">
	</g>
	<g id="btn_google_light_normal" transform="translate(-1.000000, -1.000000)">
		<g id="logo_googleg_48dp" transform="translate(15.000000, 15.000000)">
			<path id="Shape" class="st0" d="M185.4,89c0-7.1-0.6-14-1.8-20.5H89.1v38.8h54c-2.3,12.5-9.4,23.2-20,30.3v25.2h32.4
				C174.5,145.3,185.4,119.5,185.4,89L185.4,89z"/>
			<path id="Shape_1_" class="st1" d="M89.1,187.1c27.1,0,49.8-9,66.4-24.3l-32.4-25.2c-9,6-20.5,9.6-34,9.6
				c-26.1,0-48.3-17.7-56.2-41.4H-0.6v26C15.9,164.6,49.9,187.1,89.1,187.1L89.1,187.1z"/>
			<path id="Shape_2_" class="st2" d="M32.9,105.8c-2-6-3.1-12.5-3.1-19.1s1.1-13,3.1-19.1v-26H-0.6c-6.8,13.5-10.7,28.9-10.7,45.1
				s3.9,31.5,10.7,45.1L32.9,105.8L32.9,105.8z"/>
			<path id="Shape_3_" class="st3" d="M89.1,26.3c14.7,0,28,5.1,38.4,15l28.8-28.8c-17.4-16.2-40.1-26.1-67.1-26.1
				c-39.2,0-73.2,22.5-89.7,55.3l33.5,26C40.8,43.9,63,26.3,89.1,26.3L89.1,26.3z"/>
			<path id="Shape_4_" class="st4" d="M-11.3-13.7h200.7v200.7H-11.3V-13.7z"/>
		</g>
		<g id="handles_square">
		</g>
	</g>
</g>
</svg>
