<?xml version="1.0" encoding="UTF-8"?>
<svg width="36px" height="23px" viewBox="0 0 36 23" version="1.1" xmlns="http://www.w3.org/2000/svg" xmlns:xlink="http://www.w3.org/1999/xlink">
    <title>C082470A-358C-4B23-929E-DA384E4CC973</title>
    <g id="8---Specs" stroke="none" stroke-width="1" fill="none" fill-rule="evenodd">
        <g id="8.5-Iconography" transform="translate(-603.000000, -2520.000000)" fill-rule="nonzero">
            <g id="Visa" transform="translate(603.000000, 2520.000000)">
                <rect id="Rectangle-4" fill="#F7F7F7" x="0" y="0" width="36" height="23" rx="4"></rect>
                <path d="M2.12903226,0 C0.954537489,0.00319082722 0.00322222604,0.945236046 0,2.10828601 L0,4.21657202 L36,4.21657202 L36,2.10828601 C36,0.943911798 35.0467998,0 33.8709677,0 L2.12903226,0 Z" id="Rectangle-5" fill="#575DC1"></path>
                <path d="M0,18.78 L0,20.888286 C0,21.4474382 0.224308112,21.983689 0.623579111,22.3790693 C1.02285011,22.7744497 1.5643778,22.996572 2.12903226,22.996572 L33.8709677,22.996572 C35.0454625,22.9933812 35.9967778,22.051336 36,20.888286 L36,18.78 L0,18.78 Z" id="Rectangle-6" fill="#EBAA3E"></path>
                <g id="Group" transform="translate(8.572535, 8.690000)" fill="#5565AF">
                    <path d="M1.63203407,5.18649974 C1.78122238,4.75727858 1.9537828,4.33654137 2.14894166,3.9261745 L4.20495612,0 L5.69179143,0 L2.14894166,6.51652039 L0.580795044,6.51652039 L0,0 L1.38810015,0 L1.62622612,3.9261745 C1.62622612,4.05975736 1.62622612,4.25722767 1.62622612,4.50696954 C1.62622612,4.75671141 1.62622612,5.03549303 1.62622612,5.17488384 L1.63203407,5.18649974 Z" id="Shape"></path>
                    <polygon id="Shape-2" points="5.40139391 6.51652039 6.86499742 0 8.29956118 0 6.83014972 6.51652039"></polygon>
                    <path d="M11.9643779,6.16223542 C11.4138797,6.5495361 10.7488405,6.73983963 10.076794,6.70237481 C9.49253882,6.72980294 8.91249856,6.59083496 8.40410428,6.30162623 L8.40410428,5.08195663 C8.91776129,5.37774802 9.49603755,5.54325468 10.0884099,5.56401652 C10.3759438,5.57976113 10.6620143,5.51327998 10.9131389,5.37235416 C11.0994559,5.26767082 11.2132306,5.06912281 11.2093443,4.85544657 C11.2214603,4.74004257 11.2095963,4.6233799 11.1744966,4.51277749 C11.1296058,4.41441347 11.068771,4.32414251 10.9944502,4.24561177 C10.8123337,4.0804352 10.6182014,3.92901204 10.4136551,3.79259164 C10.0517347,3.5672231 9.74109991,3.26845967 9.50180692,2.91559112 C9.32890709,2.6366305 9.23831049,2.31450924 9.24044915,1.98631905 C9.23421963,1.62257077 9.33521761,1.26503791 9.53084667,0.958311822 C9.72756285,0.660650412 10.0030086,0.423405202 10.3265359,0.272973671 C10.7156061,0.100043921 11.1379429,0.0147834288 11.5636293,0.0232318018 C12.2117321,0.0165349089 12.851684,0.168049993 13.4279814,0.464636035 L12.9168818,1.48102736 C12.494206,1.27643773 12.033018,1.16361491 11.5636293,1.14997419 C11.3334132,1.14064959 11.1072539,1.21260937 10.9247548,1.35325245 C10.7618294,1.4793934 10.6690152,1.67581418 10.6750129,1.88177594 C10.6715076,2.05375479 10.7268314,2.22177514 10.8318276,2.35802788 C11.0346522,2.57162416 11.2698517,2.7519438 11.5287816,2.89235932 C11.8662218,3.08958115 12.1573751,3.35696677 12.3825503,3.67643263 C12.5745946,3.97588755 12.6736241,4.32552253 12.6671399,4.68120805 C12.6878246,5.26386581 12.4267996,5.81636875 11.9643779,6.16223542 Z" id="Shape-3"></path>
                    <path d="M17.1566856,4.99483738 L14.9322406,4.99483738 L14.1249355,6.54556014 L12.6206763,6.54556014 L16.2216056,0 L17.9639907,0 L18.6667527,6.54556014 L17.2728446,6.54556014 L17.1624935,4.99483738 L17.1566856,4.99483738 Z M17.0869902,3.83324729 L16.9824471,2.27090862 C16.9514713,1.88371193 16.9359835,1.50813113 16.9359835,1.14416624 L16.9359835,0.981543624 C16.777566,1.36993198 16.5992185,1.74988963 16.401652,2.11990191 L15.5188436,3.86228704 L17.0869902,3.83324729 Z" id="Shape-4"></path>
                </g>
            </g>
        </g>
    </g>
</svg>