<svg height="20" viewBox="0 0 103 20" width="103" xmlns="http://www.w3.org/2000/svg"><g fill="#010000" fill-rule="evenodd"><path d="m72.6497808 1.42291325c.541027-.46794835 1.1178451-.82826437 1.7312865-1.06244876.6121929-.23376395 1.243946-.35989558 1.8744506-.35989558.6850235 0 1.2984649.12613163 1.8569713.37839489.552428.2496909 1.0355283.6329113 1.4066703 1.11584447.4065706.523674.7066941 1.12335561.8831226 1.76458149.1985153.68405387.3067207 1.4761605.3067207 2.34016216 0 .88250096-.1082054 1.67460759-.3246162 2.3948192-.2164108.7202116-.5227154 1.31429157-.9376415 1.81839765-.3966144.50410603-.8835388.88208053-1.4603568 1.17008103-.593335.2767109-1.2396843.4180996-1.8931785.4141322-1.2801532 0-2.3801028-.4141322-3.3173281-1.2604754v4.9872446c0 .2880006-.1444126.4322111-.4328216.4322111h-1.2622577c-.2884091 0-.4328217-.1442105-.4328217-.4322111v-14.34915453c0-.28800055.1444126-.43179061.4328217-.43179061h.9376414c.2884091 0 .4507172.14379006.4869244.43179061l.1439964.64831658zm3.0110235.26992168c-1.0096396 0-1.9651766.32415829-2.8666109.97247486v5.94079973c.9197459.6844743 1.8569713 1.02629102 2.8125082 1.02629102 1.9655929 0 2.9390254-1.31429158 2.9390254-3.96053315.0178955-2.64666202-.955537-3.97903246-2.8849227-3.97903246zm7.6875781.49485643c-.0518275.02376503-.1059376.04208046-.1614758.05465704-.071582.01807886-.1256847.03657817-.1789551.03657817-.1797874 0-.2692649-.12781339-.2692649-.38259928v-.58398944c0-.20054929.035791-.3460211.0894775-.41917745.0541027-.0727359.1614758-.14589225.340847-.21862815.4482201-.20054929 1.0038133-.36452041 1.6855074-.49191336.6559446-.1239229 1.3220038-.18501736 1.9893148-.18254687 1.3446602 0 2.330578.27336165 2.9760649.83843135.6454868.56506969.9501267 1.44000276.9501267 2.60672033v7.3816434c0 .2917845-.1431641.4372563-.4303246.4372563h-.9139195c-.269265 0-.4303246-.1454718-.4661156-.4006782l-.1077893-.7109619c-.5035457.4346881-1.0725378.7854005-1.6855073 1.0389042-.6092797.2371274-1.2364549.3645204-1.8282552.3645204-1.0217088 0-1.8286714-.2917845-2.4200556-.8745126-.5918003-.5835691-.8964402-1.36726691-.8964402-2.35151405 0-1.05698305.3766381-1.89533795 1.1111863-2.51506468.7353806-.61972674 1.7212984-.94808941 2.9760649-.94808941.7890672 0 1.6855074.12781338 2.6714251.3645204v-1.42108302c0-.78411829-.1614758-1.33068868-.5019066-1.64055205-.3408471-.30986337-.9322312-.47383449-1.7749849-.47383449-1.0217088 0-2.0617292.16397112-3.15502.49191336zm2.4737421 7.72766446c.4661156 0 .9501267-.09081477 1.4699289-.27328519.5294852-.19404309 1.0256141-.47068158 1.470345-.81985559v-2.20562175c-.3587426-.09123521-.7170689-.14589225-1.1116025-.20054929-.3744097-.05031296-.7517951-.07461533-1.129498-.07273591-1.5956136 0-2.40216.61972674-2.40216 1.87725908 0 .54657039.1435802.96574784.44822 1.25753234.2871606.2917845.717069.43725631 1.2547666.43725631zm11.8643068 3.31095528c-.3820483.9792019-.8369272 1.7044587-1.346325 2.1211135-.5098139.4351542-1.1827683.6529945-2.0018.6529945-.4165541.001839-.8318232-.0468607-1.2368711-.1451044-.1639728-.0361578-.2730105-.1088937-.3458411-.1997084-.0728306-.0903944-.1090377-.2354457-.1090377-.4347337v-.5621266c0-.2720239.1090377-.4170753.3275294-.4170753.0728306 0 .1818683.0180789.3275294.0361577.1456612.0365782.345425.0365782.5822284.0365782.5456049 0 .9642766-.1269725 1.2734944-.3809175s.5822283-.7252569.8186155-1.4139356l.4186717-1.0880955-4.1667405-10.22507072c-.1090378-.2354457-.1456612-.41707525-.1456612-.50746958 0-.16313024.109454-.25394502.309634-.25394502h1.2918061c.2363872 0 .3820483.03615774.4727744.10889364.0911422.07231547.1639728.23544571.2546989.47089142l3.0205955 8.34024374 2.9111416-8.3398233c.090726-.23544571.163557-.39899639.254699-.47131186.090726-.0727359.236387-.10889364.472774-.10889364h1.20108c.199764 0 .309218.09081478.309218.25394502 0 .1084732-.054519.27202388-.145661.50746958l-4.7485527 12.02034422zm-57.2381638 2.4103754c-3.8046686 2.8547792-9.3318841 4.3633135-14.0696162 4.3633135-6.6575459 0-12.6517093-2.4906792-17.19217468-6.6362054-.35874254-.3271014-.03537484-.7635168.39536592-.5272302 4.89879176 2.8909369 10.94622556 4.6180993 17.20923776 4.6180993 4.2170977 0 8.8474568-.8909097 13.1182411-2.7269658.6284237-.2728647 1.184433.4364154.5385299.9089886z"/><path d="m42.0541236 13.911577c-.4826854-.6412838-3.1981535-.2933036-4.4307622-.1466518-.375376.0368749-.4288236-.2933036-.0894936-.5315068 2.1619335-1.5580695 5.7172328-1.1181141 6.1278262-.5866073.4110077.5315069-.1068952 4.1791527-2.1437034 5.920325-.3215141.2750781-.6073964.1284263-.4644552-.2382032.4640409-1.1545651 1.4828593-3.7756483 1.0005882-4.4173559zm-4.3959592-11.77113876v-1.54493018c0-.24159401.1785729-.39078892.3749617-.39078892h6.621284c.2142046 0 .3749617.16742042.3749617.39078892v1.32156167c0 .22336851-.1785729.50226125-.4996727.96764763l-3.4268594 5.11755471c1.2669975-.03729873 2.6234886.16742041 3.7835909.83752593.2676522.14877105.3393299.37213956.3571458.59550806v1.63775314c0 .2233685-.2320205.4840357-.4818568.3534902-2.0347366-1.1164187-4.7477188-1.2283149-6.9962457.0186494-.2320205.1305455-.4640409-.1301217-.4640409-.3534902v-1.56315572c0-.24201787 0-.67010552.2498363-1.06089444l3.9799796-5.95550449h-3.4624911c-.2320205 0-.410179-.1491949-.410179-.37213956zm-24.1831616 9.62137586h-2.0169207c-.1871812-.0132627-.3378117-.1625246-.3567315-.3534902v-10.79374262c0-.22336851.1781586-.39078893.3923632-.39078893h1.8739796c.1963887.01864937.3571458.16742042.3749616.3534902v1.41438463h.0356317c.4818568-1.35886039 1.4099387-1.99166718 2.6591203-1.99166718 1.2674118 0 2.0525525.63280679 2.6239028 1.99124334.4818568-1.35843655 1.6063274-1.99124334 2.7842456-1.99124334.8385883 0 1.7666701.37213956 2.3380205 1.17236677.6421995.91212338.4996727 2.23368505.4996727 3.38740245v6.81125598c0 .2237923-.1785729.3912127-.3927775.3912127h-2.0169208c-.1959744-.0186493-.3567314-.1864936-.3567314-.3907889v-5.71348662c0-.44673701.0356317-1.5822289-.0538619-2.02896591-.1425269-.72562975-.6065678-.93034889-1.1775039-.93034889-.4818568 0-.9997596.33484083-1.2139642.89347402-.2142046.53955997-.1959744 1.45125951-.1959744 2.06541694v5.71348666c0 .2237923-.1785729.3912127-.3927775.3912127h-2.0169208c-.1963888-.0186493-.3567315-.1864936-.3567315-.3907889v-5.71348662c0-1.21008934.1963888-2.97796417-1.2495959-2.97796417-1.4455704 0-1.3921228 1.73099996-1.3921228 2.97754033v5.71348666c0 .2237923-.1781586.3912127-.3923632.3912127zm37.2658013-11.7618141c2.9980359 0 4.6043633 2.67999821 4.6043633 6.08562618 0 3.29415564-1.7849003 5.89998022-4.6047776 5.89998022-2.9445883 0-4.5330999-2.67999818-4.5330999-6.01145255 0-3.36875309 1.6241433-5.97415385 4.5330999-5.97415385zm.0174015 2.19596248c-1.481202 0-1.5881064 2.10313951-1.5881064 3.42470118 0 1.32113782-.018221 4.13125772 1.5702906 4.13125772 1.5706957 0 1.6419591-2.27013608 1.6419591-3.64764583 0-.91169954-.0356317-1.99124334-.3032839-2.866068-.2142046-.74427912-.6782455-1.04224507-1.3208594-1.04224507zm8.4778621 9.56585162h-2.0169208c-.1963887-.0182255-.3571457-.1856459-.3571457-.3903651v-10.79501415c.0182301-.20471914.1785728-.35349019.3927775-.35349019h1.8739795c.1781586.01864936.3215141.13012169.3571458.2975421v1.65640251h.0356317c.5705218-1.46906118 1.3564911-2.17688927 2.7486139-2.17688927.9098517 0 1.784486.33484083 2.3558364 1.26561358.5353043.8561753.5353043 2.30785865.5353043 3.36832924v6.79303038c-.0178158.1864937-.1781585.3348409-.3927775.3348409h-2.0165064c-.1785729-.0182255-.3393299-.1483472-.3571458-.3348409v-5.86183378c0-1.17236677.1251253-2.90336672-1.2669975-2.90336672-.4818568 0-.9458977.33484083-1.1601023.8561753-.2858824.65145615-.3215141 1.32113781-.3215141 2.04719142v5.80673348c-.0158155.2199389-.1946033.390275-.410179.3907889zm-26.8605121-5.04338113c0 .81887657.0178159 1.50763145-.3749616 2.23368506-.3210998.59508421-.8390026.94899826-1.3921228.94899826-.7673248 0-1.2313657-.61458128-1.2313657-1.52585697 0-1.78694804 1.5346496-2.12178887 2.9984501-2.12178887zm2.0343223 5.11797853c-.124711.1305456-.3210997.1305456-.4818568.0559481-.6782455-.5768587-.7851406-.8561753-1.1601023-1.3957353-1.1062404 1.1723668-1.8917954 1.525857-3.3195499 1.525857-1.6954067 0-3.0162661-1.0977693-3.0162661-3.27550627 0-1.71235059.8924502-2.86606799 2.1420461-3.44292669 1.0884246-.50226125 2.6234886-.59550807 3.7835909-.72562976v-.27931659c0-.50226125.0356317-1.09776931-.2502507-1.52585696-.2498363-.39121277-.7138772-.53998383-1.1240562-.53998383-.7677392 0-1.4459847.40943829-1.6241433 1.26561358-.0356317.18606978-.160757.37213956-.3571458.39078893l-1.9630589-.22336851c-.160757-.03729873-.3571457-.18606978-.3032838-.44673701.4458107-2.47527907 2.5878568-3.21955819 4.5152839-3.21955819.9815295 0 2.2663428.27931659 3.0340819 1.04224507.9815295.94942211.8924502 2.23326121.8924502 3.61034712v3.27550627c0 .98672084.3923632 1.41438464.7673248 1.95394461.124711.18649363.160757.42808763 0 .55863323-.3927775.3721395-1.1244706 1.0235957-1.535064 1.3957352zm-28.46642509-5.11797853c0 .81887657.01781585 1.50763145-.37496165 2.23368506-.32109975.59508421-.83900257.94899826-1.39212279.94899826-.76732482 0-1.23136575-.61458128-1.23136575-1.52585697 0-1.78694804 1.53464964-2.12178887 2.99845019-2.12178887zm2.03432229 5.11797853c-.124711.1305456-.32109975.1305456-.48185679.0559481-.67824554-.5768587-.78514068-.8561753-1.16010232-1.3957353-1.10624044 1.1723668-1.89179544 1.525857-3.31954994 1.525857-1.69540669 0-3.01626605-1.0977693-3.01626605-3.27550627 0-1.71235059.89245015-2.86606799 2.14204608-3.44292669 1.08842457-.50226125 2.62307422-.59550807 3.78317655-.72562976v-.27931659c0-.50226125.03604603-1.09776931-.24983633-1.52585696-.24983632-.39121277-.71387725-.53998383-1.12405628-.53998383-.76773915 0-1.44598469.40943829-1.62414326 1.26561358-.03604604.18606978-.16075704.37213956-.35714579.39078893l-1.945243-.22336851c-.16075704-.03729873-.35714579-.18606978-.30369822-.44673701.44622507-2.47527907 2.58827115-3.21955819 4.5156983-3.21955819.98152943 0 2.26634276.27931659 3.0340819 1.04224507.98152944.94942211.89245015 2.23326121.89245015 3.61034712v3.27550627c0 .98672084.39236318 1.41438464.76732482 1.95394461.124711.18649363.16075704.42808763 0 .55863323-.41017903.3721395-1.14228646 1.0235957-1.55287982 1.3957352z"/></g></svg>