<svg height="44" viewBox="0 0 227 44" width="227" xmlns="http://www.w3.org/2000/svg"><g fill="none" fill-rule="evenodd"><path d="m89.5731468 34.0651106c-8.3886412 6.1908506-20.5504348 9.4830354-31.0236977 9.4830354-14.6772286 0-27.8948362-5.4256748-37.8974195-14.4573209-.7844659-.7098773-.0848767-1.6782426.8590544-1.1291165 10.7909073 6.2795853 24.1371159 10.0617398 37.9192817 10.0617398 9.29785 0 19.519055-1.9303005 28.9236439-5.9195026 1.4184687-.6005665 2.6080276.9349291 1.2191372 1.9611648z" fill="#f79c34"/><path d="m93.0646631 30.0784806c-1.0738181-1.3734584-7.0923435-.6507209-9.7968218-.3266465-.8191882.0990228-.9465032-.6172846-.2083336-1.1355465 4.8019602-3.3732034 12.6710534-2.3996941 13.5854063-1.2692916.920783 1.1381186-.2430558 9.027788-4.7415177 12.7919384-.6931592.5787043-1.3515962.270062-1.0442399-.4938278 1.0133757-2.529581 3.2793247-8.1905957 2.2055067-9.566626z" fill="#f79c34"/><g fill="#333e47"><path d="m83.4581707 4.78910008v-3.27675269c.002572-.49897176.3780868-.83076226.8307623-.82947625l14.6888026-.00128601c.4693935 0 .8474804.34079257.8474804.82690423v2.80993117c-.0051441.47196556-.402521 1.08667819-1.1059683 2.06275954l-7.6093194 10.86420983c2.8240773-.0655865 5.8114778.3575107 8.3783531 1.7991276.5787046.3253604.7343116.807614.7793216 1.2795796v3.4966603c0 .4822537-.5272637 1.0390959-1.0828198.7497437-4.5203241-2.3688299-10.5195593-2.6273178-15.5195649.0282922-.5105459.2726341-1.0442399-.2777781-1.0442399-.7600317v-3.3243351c0-.531122.0102881-1.4416168.5465541-2.2518029l8.8143104-12.64661929-7.6749058-.00128601c-.4693935 0-.8461944-.33436252-.8487664-.82561822z"/><path d="m29.8778631 25.2585163h-4.4688837c-.4256692-.0270062-.7651758-.3459366-.799898-.7548877l.003858-22.93598279c0-.45781945.3858029-.82433221.8629125-.82433221l4.1615274-.00128601c.4346712.02186216.7844659.35108064.8114721.7703198v2.99383056h.0848766c1.0841062-2.89609382 3.1275756-4.24769 5.8809223-4.24769 2.7944991 0 4.5473303 1.35159618 5.7986177 4.24769 1.0841062-2.89609382 3.5455287-4.24769 6.1728465-4.24769 1.8775741 0 3.9210435.77289182 5.172331 2.51029091 1.4184686 1.93158655 1.1278305 4.72994363 1.1278305 7.19136617l-.0051441 14.47403907c0 .4565334-.3845169.8243322-.8616265.8243322h-4.4624536c-.4501034-.0282922-.80247-.3832309-.80247-.8230462l-.001286-12.1592216c0-.9645073.0835906-3.37706146-.126029-4.29398637-.3330765-1.54578364-1.333592-1.98045492-2.6260318-1.98045492-1.0853922 0-2.2119366.72402346-2.6710421 1.88143217-.4591055 1.15998074-.4166671 3.08899532-.4166671 4.39300912v12.1579356c0 .4565334-.3858029.8243322-.8616265.8243322h-4.4637397c-.4488173-.0282922-.80247-.3832309-.80247-.8230462l-.005144-12.1592216c0-2.55787329.4179531-6.32073764-2.7520608-6.32073764-3.2124522 0-3.0864232 3.66641362-3.0864232 6.32073764l-.002572 12.1579356c0 .4565334-.3858029.8243322-.8616265.8243322z"/><path d="m112.510416 4.94084922c-3.294757 0-3.503113 4.4868878-3.503113 7.28653088 0 2.7996431-.04113 8.7847322 3.463246 8.7847322 3.461938 0 3.62912-4.8263944 3.62912-7.7700705 0-1.9303006-.084877-4.24769005-.668725-6.08153986-.500258-1.593366-1.50206-2.21965272-2.920528-2.21965272zm-.039867-4.68236127c6.631952 0 10.218633 5.69702291 10.218633 12.93597145 0 6.9958927-3.962196 12.5475965-10.218633 12.5475965-6.508495 0-10.054023-5.6957369-10.054023-12.7893663 0-7.14378384 3.586681-12.69420165 10.054023-12.69420165z"/><path d="m131.291301 25.2585163h-4.453452c-.446245-.0282922-.801184-.3832309-.801184-.8230462l-.007716-22.94369886c.038581-.42052517.408951-.74845764.859055-.74845764l4.144809-.00128601c.390947.02057616.712449.28549415.794754.64171883v3.50823443h.083591c1.252573-3.13786364 3.002832-4.6334929 6.089256-4.6334929 2.002317 0 3.963481.72402345 5.214769 2.70319236 1.167697 1.83384981 1.167697 4.92155907 1.167697 7.14249779v14.4328867c-.048869.4063791-.414095.7214515-.856483.7214515h-4.479172c-.414095-.0257202-.747171-.3305045-.79604-.7214515v-12.4524318c0-2.51029088.293211-6.17927651-2.794499-6.17927651-1.084106 0-2.085907.72402345-2.586165 1.83384981-.626287 1.40046455-.709877 2.7996431-.709877 4.3454267v12.3495511c-.007716.4565334-.393519.8243322-.869343.8243322z"/><path d="m76.2526584 25.2019318c-.2944962.264918-.7201654.2829222-1.0545279.1041668-1.4840552-1.2332833-1.7502592-1.8029856-2.5617313-2.9783984-2.4524205 2.4987168-4.1898196 3.2484605-7.3675495 3.2484605-3.7615784 0-6.6885364-2.3225335-6.6885364-6.9650285 0-3.6278333 1.9663088-6.0943999 4.7659519-7.303249 2.4241283-1.064816 5.8101918-1.2577175 8.4027873-1.54835568v-.57999037c0-1.06610203.0835906-2.32124749-.5439821-3.24074441-.5439821-.8230462-1.588222-1.16126675-2.5077189-1.16126675-1.7052488 0-3.2188822.87320058-3.5918251 2.68261621-.0784465.40252103-.3716568.80247004-.7754638.8230462l-4.3325666-.46939354c-.3652268-.08359063-.7716058-.37680084-.6674391-.93492904.9837974-5.18133303 5.6108603-6.7965612 9.816112-6.84028553h.3317905c2.1527802.0270062 4.9022689.61728465 6.5766535 2.22351075 2.1746424 2.03189531 1.9637368 4.74023171 1.9637368 7.69162394v6.96117042c0 2.0949098.8706286 3.0131207 1.6872447 4.1409512.2867802.4076651.3497947.8899187-.0141461 1.188273-.9130669.7651757-2.5347251 2.1733563-3.4259298 2.9681103zm-4.5036059-10.895074c0 1.7412571.0411523 3.191876-.8359063 4.7402317-.7111634 1.2564314-1.8402799 2.0306093-3.0941393 2.0306093-1.7129649 0-2.7160525-1.3052999-2.7160525-3.2407444 0-3.8065887 3.4130697-4.4984619 6.6460981-4.4984619z"/><path d="m17.6736311 25.2019318c-.2957822.264918-.7227374.2829222-1.0558139.1041668-1.4853412-1.2332833-1.7515452-1.8029856-2.5617313-2.9783984-2.4537065 2.4987168-4.18981958 3.2484605-7.36754951 3.2484605-3.76157834 0-6.68853639-2.3225335-6.68853639-6.9650285 0-3.6278333 1.96373679-6.0943999 4.7659519-7.303249 2.42412826-1.064816 5.8101918-1.2577175 8.4015013-1.54835568v-.57999037c0-1.06610203.0848766-2.32124749-.5426961-3.24074441-.5439821-.8230462-1.589508-1.16126675-2.5077189-1.16126675-1.70524883 0-3.22145426.87320058-3.59182505 2.68261621-.07716058.40252103-.3716568.80247004-.77674985.8230462l-4.33128062-.46939354c-.36651277-.08359063-.77289183-.37680084-.66743903-.93492904.98122539-5.18133303 5.60957425-6.7965612 9.81611195-6.84028553h.3317905c2.1527802.0270062 4.9022689.61728465 6.5766535 2.22351075 2.1733564 2.03189531 1.9637368 4.74023171 1.9637368 7.69162394v6.96117042c0 2.0949098.8706286 3.0131207 1.6872447 4.1409512.2842082.4076651.3497947.8899187-.0141461 1.188273-.9130668.7651757-2.5360111 2.1733563-3.4272158 2.9681103zm-4.5061779-10.895074c0 1.7412571.0424383 3.191876-.8359063 4.7402317-.7098774 1.2564314-1.8389939 2.0306093-3.09413931 2.0306093-1.71296491 0-2.71605246-1.3052999-2.71605246-3.2407444 0-3.8065887 3.41435572-4.4984619 6.64609807-4.4984619z"/><path d="m205.469626 33.4864063c0-.5812764 0-1.1033964 0-1.6846727 0-.4796816.23534-.8101861.735597-.7806079.933643.132459 2.254375.264918 3.191876.0720165 1.224282-.2546299 2.102626-1.1226864 2.622174-2.3122454.73174-1.6743846 1.216565-3.0246948 1.522636-3.9107555l-9.296564-23.02986144c-.156894-.39094694-.20319-1.11625641.577418-1.11625641h3.249746c.619857 0 .871915.39351897 1.010804.77932187l6.739977 18.70629688 6.433906-18.70629688c.131173-.38323088.394805-.77932187 1.009518-.77932187h3.064561c.775464 0 .731739.72402346.577418 1.11625641l-9.221975 23.74874094c-1.193417 3.1610118-2.782925 8.1957397-6.363176 9.0702263-1.79527.4693935-4.059933.2996402-5.389667-.2572019-.335648-.1684673-.464249-.6185707-.464249-.9156389z"/><path d="m201.134487 23.8554797c0 .4282412-.35108.7793219-.781894.7793219h-2.291669c-.495114 0-.833334-.3575107-.896349-.7793219l-.230195-1.5599297c-1.053242.8912047-2.345682 1.6743846-3.747433 2.2196527-2.695476 1.0468119-5.802475 1.2204232-8.436223-.397377-1.904581-1.1689828-2.915384-3.454222-2.915384-5.8114778 0-1.8235617.561986-3.6316914 1.808129-4.9447072 1.662811-1.7939836 4.072793-2.6749002 6.983033-2.6749002 1.757975 0 4.27341.2070476 6.103402.8050421v-3.13914968c0-3.19187604-1.34388-4.57305045-4.886837-4.57305045-2.708336 0-4.780098.40895108-7.663332 1.30529983-.461677.01543212-.731739-.33564852-.731739-.76388975v-1.79012548c0-.42952724.366513-.84490837.76389-.97093732 2.058901-.89763476 4.975571-1.45704897 8.076141-1.55992975 4.041928 0 8.84646.91178087 8.84646 7.1283517zm-4.404583-4.5833385v-4.7363737c-1.538068-.4205252-4.083081-.5954225-5.068164-.5954225-1.556072 0-3.260035.3677988-4.149953 1.325876-.664867.7021613-.965794 1.7103929-.965794 2.6851882 0 1.2602895.435958 2.524437 1.454477 3.1494378 1.183129.803756 3.018265.7060193 4.742804.2160496 1.657666-.4706796 3.213738-1.3027278 3.98663-2.0447554z"/><path d="m167.344583 3.850313c5.084882 0 6.469914 3.99820412 6.469914 8.5763986.028293 3.0864233-.538838 5.838484-2.137348 7.4138459-1.195989 1.1792708-2.532153 1.5007733-4.543472 1.5007733-1.790125 0-4.144809-.9336431-5.90407-2.2337989v-13.09029257c1.831277-1.4068946 4.167957-2.16692633 6.114976-2.16692633zm-6.894298 30.4578534h-3.069705c-.429528 0-.780608-.3510806-.780608-.7793218 0-10.6610203 0-21.3233267 0-31.98434697 0-.42824122.35108-.77932187.780608-.77932187h2.349539c.493828 0 .832049.3575107.895063.77932187l.246914 1.67567063c2.200362-1.95344872 5.033442-3.20602215 7.732776-3.20602215 7.560451 0 10.046308 6.22943092 10.046308 12.70706169 0 6.9303062-3.802731 12.4987282-10.234065 12.4987282-2.708337 0-5.24049-.9992295-7.187508-2.7353426v11.0442512c0 .4282412-.351081.7793218-.779322.7793218z"/></g></g></svg>