<svg xmlns="http://www.w3.org/2000/svg" viewBox="0 0 377.81 110.36"><defs><style>.cls-1{fill:#c2c8d2}</style></defs><g id="レイヤー_2" data-name="レイヤー 2"><g id="ロゴ"><path class="cls-1" d="M168.14 64.7q10.32 6 10.33 18A21.1 21.1 0 01171.4 99a25 25 0 01-17.4 6.4h-33.33V26.88h31a24.46 24.46 0 0117 6.23A20.45 20.45 0 01175.55 49a19.14 19.14 0 01-7.41 15.7zm-16.49-23.34h-15.49v17.28h15.49a8 8 0 006-2.47 8.45 8.45 0 002.41-6.17 8.59 8.59 0 00-2.35-6.17 8 8 0 00-6.06-2.47zM154 91a8.72 8.72 0 006.51-2.64 9.13 9.13 0 002.58-6.67 9 9 0 00-2.58-6.57 8.76 8.76 0 00-6.51-2.68h-17.84V91zM239.64 105.44l-5-14.14h-32.27l-4.71 14.14h-16.72l27.49-78.56h19.19l27.72 78.56zm-32.22-28.62h22.11l-11.34-32.09zM287.54 107q-11.67 0-19.63-5.22a27.88 27.88 0 01-11.23-14.2l13.25-7.74q4.59 12 18.06 12 6.51 0 9.54-2.36a7.42 7.42 0 00-.67-12.4q-3.71-2.3-13.24-5a84.32 84.32 0 01-8.93-3.08 38.5 38.5 0 01-7.29-4.21 17.19 17.19 0 01-5.55-6.68 21.72 21.72 0 01-1.91-9.43q0-10.65 7.57-17a27.52 27.52 0 0118.24-6.34A30.32 30.32 0 01302.52 30a31.31 31.31 0 0111.28 13l-13 7.52q-4.73-10.1-15-10.1a11.87 11.87 0 00-7.58 2.19 6.93 6.93 0 00-2.75 5.67 7.15 7.15 0 003.09 6q3.09 2.3 11.84 5c2.39.75 4.21 1.33 5.44 1.74s2.92 1.05 5 1.91a31.28 31.28 0 014.94 2.41 38.75 38.75 0 014 3 15.67 15.67 0 013.43 3.93 22.77 22.77 0 012 4.88 22.08 22.08 0 01.84 6.23q0 10.89-7.91 17.28t-20.6 6.34zM343 90.62h34.79v14.82h-50.25V26.88h49.71V41.7H343v16.72h31.43V73H343zM100.51 110.36L52.3 26.86 65.12 4.65l-3.07-1.77L52 20.26V0h-3.51v20.25l-10-17.37-3.1 1.77 12.82 22.21L0 110.36zM78.39 86.22l11.1 19.22H67.3zm-28.14 0l11.09 19.22H39.15zm-17 19.22H11l11.1-19.22z"/></g></g></svg>