<svg xmlns="http://www.w3.org/2000/svg" viewBox="0 0 123 30">
  <g fill="none" fill-rule="evenodd" transform="translate(.563)">
    <polygon fill="#005B47" points="1.614 24.77 1.535 24.77 1.305 24.788 1.016 24.851 .777 24.948 .558 25.082 .389 25.242 .269 25.438 .189 25.651 .159 25.837 .159 25.9 .159 25.935 .169 26.051 .199 26.202 .249 26.353 .329 26.514 .448 26.682 .608 26.852 .807 27.038 .997 27.19 1.056 27.234 1.365 27.456 1.415 27.5 1.565 27.616 1.734 27.75 1.864 27.883 1.963 27.998 2.043 28.123 2.093 28.239 2.113 28.363 2.122 28.47 2.122 28.506 2.122 28.541 2.113 28.648 2.063 28.781 1.993 28.906 1.893 29.021 1.764 29.119 1.604 29.19 1.415 29.244 1.256 29.262 1.206 29.262 1.176 29.262 1.096 29.253 .967 29.244 .827 29.217 .688 29.164 .548 29.092 .419 28.995 .319 28.853 .269 28.728 .259 28.684 .249 28.665 .24 28.568 .24 28.496 .24 28.47 .24 28.461 .24 28.452 .23 28.434 .23 28.417 .219 28.399 .209 28.381 .199 28.372 .169 28.363 .149 28.355 .14 28.355 .13 28.355 .11 28.363 .08 28.372 .069 28.39 .05 28.408 .05 28.434 .04 28.452 .04 28.479 .03 28.488 .03 28.496 .03 28.506 .03 28.532 .03 28.559 .03 28.568 .03 28.594 .02 28.674 .01 28.808 0 28.959 0 29.092 0 29.137 0 29.164 0 29.244 .02 29.315 .06 29.359 .11 29.395 .13 29.404 .179 29.422 .329 29.475 .558 29.528 .797 29.564 .997 29.573 1.056 29.573 1.136 29.573 1.355 29.555 1.634 29.502 1.883 29.422 2.053 29.342 2.113 29.315 2.153 29.288 2.262 29.199 2.391 29.075 2.491 28.941 2.571 28.808 2.631 28.674 2.67 28.532 2.7 28.399 2.71 28.31 2.71 28.275 2.71 28.23 2.7 28.105 2.67 27.936 2.611 27.767 2.521 27.598 2.381 27.42 2.212 27.234 1.983 27.038 1.774 26.878 1.694 26.834 1.504 26.7 1.455 26.655 1.286 26.531 1.106 26.389 .967 26.264 .867 26.149 .787 26.042 .737 25.935 .708 25.828 .698 25.749 .698 25.722 .698 25.687 .718 25.58 .757 25.455 .827 25.348 .916 25.251 1.036 25.171 1.166 25.117 1.315 25.082 1.445 25.073 1.485 25.073 1.535 25.073 1.674 25.082 1.833 25.099 1.973 25.144 2.072 25.188 2.153 25.233 2.212 25.277 2.262 25.322 2.282 25.357 2.282 25.366 2.292 25.375 2.312 25.429 2.342 25.499 2.362 25.58 2.362 25.633 2.372 25.651 2.372 25.669 2.372 25.687 2.381 25.704 2.391 25.722 2.402 25.739 2.421 25.757 2.442 25.766 2.461 25.766 2.471 25.766 2.481 25.766 2.501 25.766 2.531 25.749 2.541 25.722 2.561 25.695 2.561 25.669 2.571 25.642 2.571 25.606 2.571 25.589 2.571 25.58 2.571 25.526 2.571 25.366 2.581 25.197 2.591 25.073 2.591 25.01 2.591 24.993 2.601 24.948 2.601 24.939 2.591 24.913 2.571 24.877 2.531 24.868 2.491 24.86 2.481 24.86 2.471 24.86 2.442 24.86 2.402 24.851 2.332 24.841 2.272 24.833 2.252 24.833 2.202 24.824 1.953 24.788 1.694 24.77"/>
    <polygon fill="#005B47" points="8.573 24.773 8.562 24.773 8.543 24.773 8.503 24.782 8.473 24.817 8.443 24.853 8.423 24.888 8.423 24.897 8.413 24.906 8.403 24.933 8.383 24.986 8.343 25.057 8.303 25.137 8.254 25.235 8.204 25.341 8.144 25.466 8.074 25.6 8.005 25.742 7.935 25.903 7.855 26.053 7.776 26.222 7.695 26.391 7.616 26.56 7.526 26.729 7.446 26.907 7.357 27.076 7.277 27.236 7.198 27.405 7.118 27.565 7.048 27.716 6.978 27.858 6.909 27.992 6.848 28.116 6.789 28.232 6.749 28.33 6.699 28.41 6.669 28.481 6.649 28.534 6.629 28.561 6.629 28.57 6.62 28.579 6.62 28.57 6.6 28.534 6.57 28.481 6.539 28.419 6.5 28.33 6.45 28.232 6.39 28.116 6.321 28.001 6.261 27.858 6.181 27.716 6.101 27.565 6.022 27.405 5.942 27.236 5.852 27.067 5.772 26.898 5.682 26.729 5.593 26.551 5.503 26.383 5.424 26.213 5.334 26.053 5.255 25.893 5.184 25.742 5.105 25.6 5.045 25.457 4.976 25.341 4.925 25.226 4.876 25.128 4.826 25.04 4.795 24.977 4.766 24.924 4.756 24.897 4.746 24.888 4.746 24.879 4.726 24.844 4.696 24.808 4.666 24.782 4.626 24.773 4.606 24.773 4.577 24.773 4.557 24.79 4.537 24.808 4.517 24.826 4.506 24.853 4.506 24.87 4.497 24.897 4.497 24.915 4.497 24.924 4.487 24.96 4.477 25.084 4.447 25.279 4.427 25.529 4.387 25.831 4.348 26.16 4.308 26.524 4.268 26.889 4.228 27.253 4.178 27.61 4.148 27.947 4.109 28.241 4.078 28.499 4.058 28.686 4.038 28.819 4.038 28.864 4.038 28.881 4.028 28.934 4.019 29.014 4.009 29.086 3.989 29.148 3.959 29.201 3.929 29.246 3.889 29.281 3.849 29.299 3.83 29.299 3.82 29.299 3.769 29.308 3.73 29.308 3.69 29.317 3.66 29.317 3.65 29.317 3.64 29.317 3.61 29.317 3.57 29.335 3.55 29.361 3.54 29.379 3.54 29.388 3.54 29.406 3.55 29.415 3.55 29.433 3.57 29.451 3.59 29.46 3.61 29.477 3.65 29.477 3.68 29.486 3.7 29.486 3.72 29.486 3.79 29.486 3.899 29.477 4.009 29.477 4.058 29.468 4.078 29.468 4.099 29.468 4.128 29.468 4.168 29.468 4.188 29.468 4.208 29.468 4.238 29.468 4.288 29.468 4.337 29.468 4.348 29.468 4.367 29.468 4.427 29.468 4.547 29.477 4.677 29.477 4.776 29.486 4.806 29.486 4.826 29.486 4.856 29.486 4.876 29.477 4.905 29.468 4.925 29.46 4.945 29.441 4.966 29.424 4.966 29.397 4.966 29.388 4.966 29.379 4.955 29.361 4.935 29.335 4.905 29.317 4.876 29.317 4.866 29.317 4.856 29.317 4.816 29.308 4.766 29.308 4.706 29.299 4.656 29.291 4.646 29.291 4.626 29.281 4.587 29.272 4.557 29.237 4.527 29.193 4.517 29.157 4.517 29.139 4.517 29.104 4.517 28.988 4.517 28.864 4.527 28.837 4.527 28.81 4.537 28.721 4.547 28.597 4.557 28.428 4.577 28.223 4.597 28.001 4.616 27.761 4.636 27.512 4.656 27.263 4.687 27.022 4.706 26.8 4.716 26.605 4.736 26.427 4.746 26.302 4.756 26.213 4.756 26.187 4.776 26.222 4.826 26.32 4.895 26.463 4.995 26.658 5.105 26.88 5.234 27.138 5.374 27.414 5.513 27.69 5.653 27.974 5.792 28.241 5.922 28.499 6.042 28.721 6.141 28.917 6.211 29.068 6.261 29.157 6.281 29.193 6.301 29.228 6.36 29.335 6.41 29.424 6.46 29.46 6.49 29.468 6.5 29.468 6.52 29.468 6.56 29.46 6.6 29.424 6.649 29.344 6.699 29.246 6.709 29.22 6.729 29.184 6.779 29.086 6.848 28.934 6.948 28.73 7.068 28.499 7.198 28.241 7.327 27.956 7.477 27.672 7.616 27.387 7.755 27.103 7.875 26.845 7.994 26.614 8.094 26.409 8.164 26.258 8.214 26.16 8.234 26.125 8.234 26.16 8.244 26.258 8.254 26.4 8.273 26.587 8.294 26.818 8.323 27.067 8.343 27.334 8.373 27.61 8.403 27.885 8.423 28.152 8.453 28.401 8.473 28.623 8.493 28.819 8.503 28.962 8.513 29.059 8.523 29.095 8.523 29.104 8.523 29.139 8.523 29.175 8.523 29.184 8.523 29.193 8.523 29.22 8.523 29.255 8.523 29.281 8.513 29.299 8.503 29.299 8.483 29.308 8.463 29.326 8.453 29.353 8.453 29.37 8.453 29.379 8.453 29.397 8.463 29.424 8.483 29.433 8.513 29.451 8.543 29.46 8.582 29.468 8.622 29.468 8.662 29.477 8.672 29.477 8.692 29.477 8.782 29.477 8.921 29.486 9.071 29.486 9.24 29.486 9.39 29.486 9.529 29.486 9.649 29.486 9.699 29.486 9.718 29.486 9.739 29.486 9.778 29.477 9.818 29.468 9.848 29.46 9.878 29.441 9.888 29.424 9.898 29.415 9.898 29.397 9.898 29.388 9.898 29.379 9.898 29.37 9.888 29.344 9.858 29.326 9.818 29.317 9.798 29.317 9.788 29.317 9.739 29.317 9.649 29.308 9.539 29.291 9.439 29.272 9.41 29.264 9.39 29.255 9.33 29.228 9.26 29.166 9.21 29.095 9.17 29.006 9.151 28.917 9.13 28.828 9.111 28.739 9.111 28.686 9.101 28.659 8.682 24.968 8.682 24.96 8.682 24.942 8.672 24.906 8.672 24.87 8.662 24.835 8.642 24.808 8.622 24.79 8.593 24.773"/>
    <path fill="#005B47" d="M12.0838371,24.8546418 L12.0241349,24.8546418 L11.8244584,24.8546418 L11.6353176,24.8640448 L11.6057174,24.8640448 L11.3463387,24.8725522 L11.2665684,24.8725522 L11.2274358,24.8640448 L11.1275976,24.8640448 L10.9575214,24.8546418 L10.7683807,24.8546418 L10.6289082,24.8546418 L10.5892739,24.8546418 L10.5792399,24.8546418 L10.5692059,24.8546418 L10.5491379,24.8546418 L10.5195377,24.8546418 L10.4894357,24.8640448 L10.4698694,24.8725522 L10.4498014,24.8904627 L10.4397674,24.9168806 L10.4297334,24.9343433 L10.4297334,24.9437463 L10.4297334,24.9527015 L10.4397674,24.9791194 L10.4598354,25.0055373 L10.4894357,25.0238955 L10.5195377,25.032403 L10.5290699,25.032403 L10.5491379,25.032403 L10.5892739,25.032403 L10.6489762,25.032403 L10.7091801,25.032403 L10.7387804,25.0413582 L10.7488144,25.0413582 L10.7784147,25.0503134 L10.8682189,25.0771791 L10.9379552,25.1304627 L10.9881251,25.2191194 L10.9976574,25.3077761 L11.0076914,25.3440448 L11.0076914,25.3610597 L11.0076914,25.4152388 L11.0076914,25.4949403 L11.0177254,25.5925522 L11.0177254,25.7174776 L11.0177254,25.8683731 L11.0177254,26.0734478 L11.0177254,26.3219552 L11.0177254,26.5619552 L11.0177254,26.6421045 L11.0177254,27.7006119 L11.0177254,27.7982239 L11.0177254,28.1004627 L11.0177254,28.4653881 L11.0076914,28.7676269 L10.9881251,28.9368806 L10.9881251,28.9991194 L10.9780911,29.0255373 L10.9575214,29.114194 L10.9279212,29.2037463 L10.8882869,29.2655373 L10.8486526,29.2834478 L10.8280829,29.292403 L10.8085166,29.292403 L10.7187124,29.3103134 L10.6590102,29.3103134 L10.6394439,29.3103134 L10.6188742,29.3103134 L10.5892739,29.3188209 L10.5596736,29.3371791 L10.5396056,29.363597 L10.5290699,29.3904627 L10.5290699,29.3989701 L10.5396056,29.4258358 L10.5491379,29.4437463 L10.5692059,29.4616567 L10.5993079,29.4786716 L10.6188742,29.4786716 L10.6489762,29.4880746 L10.6690441,29.4880746 L10.6891121,29.4880746 L10.7187124,29.4880746 L10.8085166,29.4880746 L10.9379552,29.4786716 L11.0774277,29.4786716 L11.1672319,29.4706119 L11.1968322,29.4706119 L11.3463387,29.4706119 L11.6157514,29.4786716 L11.6553856,29.4786716 L11.7948581,29.4880746 L11.9845006,29.4970299 L12.1440411,29.5059851 L12.2233096,29.5059851 L12.2529099,29.5059851 L12.3030799,29.5059851 L12.4626203,29.4970299 L12.6617951,29.4706119 L12.8514376,29.434791 L13.021012,29.3904627 L13.1800508,29.3277761 L13.3295573,29.2570299 L13.4589958,29.1679254 L13.5784003,29.0792687 L13.6782386,28.981209 L13.7680428,28.874194 L13.847813,28.7586716 L13.9175493,28.6431493 L13.9672176,28.5276269 L13.9973195,28.4027015 L14.0173875,28.2786716 L14.0274215,28.1810597 L14.0274215,28.154194 L14.0274215,28.083 L13.9973195,27.8873284 L13.9175493,27.6562836 L13.7881108,27.4516567 L13.6386043,27.2828507 L13.4589958,27.1315075 L13.2693534,27.0155373 L13.0802126,26.9268806 L12.9407401,26.8731493 L12.8910718,26.8646418 L12.9307061,26.8467313 L13.021012,26.7750896 L13.1303826,26.6779254 L13.2297191,26.5619552 L13.3195233,26.4374776 L13.3892596,26.2950896 L13.4494635,26.144194 L13.4790638,25.9753881 L13.4890978,25.8419552 L13.4890978,25.7971791 L13.4890978,25.7797164 L13.4890978,25.7259851 L13.4790638,25.654791 L13.4589958,25.5840448 L13.4288939,25.5038955 L13.3892596,25.4237463 L13.3395913,25.3440448 L13.2798891,25.272403 L13.2101528,25.1922537 L13.1203486,25.1215075 L13.021012,25.0592687 L12.9011058,25.0055373 L12.7716673,24.9527015 L12.6321948,24.9079254 L12.4626203,24.8810597 L12.2830119,24.8640448 L12.1340071,24.8546418 L12.0838371,24.8546418 Z M11.6553856,26.7750896 L11.6553856,26.7670299 L11.6553856,26.7580746 L11.6553856,26.704791 L11.6553856,26.6246418 L11.6553856,26.5171791 L11.6553856,26.3931493 L11.6553856,26.2597164 L11.6553856,26.1088209 L11.6553856,25.9659851 L11.6553856,25.8155373 L11.6553856,25.6727015 L11.6553856,25.5303134 L11.6553856,25.4152388 L11.6553856,25.3077761 L11.6553856,25.2276269 L11.6553856,25.1837463 L11.6553856,25.1658358 L11.6553856,25.1573284 L11.6654196,25.1479254 L11.6754536,25.1479254 L11.6950199,25.1389701 L11.7251219,25.1389701 L11.8650961,25.1215075 L11.9739649,25.1125522 L12.0141009,25.1125522 L12.0738031,25.1125522 L12.2333436,25.1304627 L12.4229861,25.201209 L12.5619569,25.2992687 L12.6818631,25.4237463 L12.7716673,25.5750896 L12.8313696,25.7438955 L12.8614716,25.9216567 L12.8810378,26.0550896 L12.8810378,26.0998657 L12.8810378,26.144194 L12.8614716,26.2597164 L12.8213356,26.4106119 L12.7415653,26.5534478 L12.6718291,26.6510597 L12.6417271,26.6779254 L12.6321948,26.6864328 L12.6020928,26.7222537 L12.5524246,26.7580746 L12.5022546,26.7844925 L12.4525864,26.802403 L12.3828501,26.8113582 L12.2935476,26.8198657 L12.1937093,26.8198657 L12.1039051,26.8198657 L12.0637691,26.8198657 L12.0341689,26.8198657 L11.9147643,26.8198657 L11.7948581,26.8113582 L11.7155896,26.802403 L11.6854876,26.802403 L11.6754536,26.7934478 L11.6654196,26.7934478 L11.6553856,26.7750896 Z M11.8048921,29.1056866 L11.7652579,29.0792687 L11.7351559,29.0434478 L11.7055556,29.0076269 L11.6950199,28.9632985 L11.6854876,28.9010597 L11.6754536,28.8209104 L11.6654196,28.7586716 L11.6654196,28.7322537 L11.6654196,28.7053881 L11.6654196,28.6874776 L11.6654196,28.6431493 L11.6654196,28.5276269 L11.6553856,28.3762836 L11.6553856,28.1895672 L11.6553856,27.9943433 L11.6553856,27.7897164 L11.6553856,27.593597 L11.6553856,27.4516567 L11.6553856,27.4068806 L11.6553856,27.3983731 L11.6553856,27.353597 L11.6553856,27.3003134 L11.6553856,27.2380746 L11.6553856,27.1758358 L11.6553856,27.1221045 L11.6553856,27.0867313 L11.6553856,27.0777761 L11.6553856,27.0688209 L11.7055556,27.0688209 L11.8550621,27.0688209 L12.0045686,27.0777761 L12.1039051,27.0777761 L12.1535734,27.0777761 L12.1736414,27.0777761 L12.2032416,27.0867313 L12.2935476,27.0956866 L12.4229861,27.1221045 L12.5524246,27.1668806 L12.6718291,27.2295672 L12.7114634,27.2465821 L12.7616333,27.2828507 L12.9011058,27.3894179 L13.0506123,27.5492687 L13.1604845,27.7095672 L13.2397531,27.8783731 L13.2899231,28.0382239 L13.3295573,28.1810597 L13.3395913,28.3144925 L13.3395913,28.3856866 L13.3395913,28.4121045 L13.3395913,28.4474776 L13.3395913,28.5540448 L13.3094893,28.6695672 L13.2693534,28.7765821 L13.2196851,28.874194 L13.1504506,28.9458358 L13.0802126,29.0165821 L13.0109781,29.0703134 L12.9307061,29.114194 L12.8409019,29.1500149 L12.7716673,29.1768806 L12.6913954,29.1943433 L12.6221608,29.2037463 L12.5619569,29.2127015 L12.5022546,29.2207612 L12.4626203,29.2207612 L12.4425524,29.2207612 L12.4325184,29.2207612 L12.4024164,29.2207612 L12.3527481,29.2207612 L12.2830119,29.2207612 L12.2032416,29.2127015 L12.1139391,29.2037463 L12.0241349,29.1853881 L11.9443646,29.1679254 L11.8846624,29.1410597 L11.8650961,29.1321045 L11.8550621,29.1321045 L11.8048921,29.1056866 Z"/>
    <polygon fill="#005B47" points="17.769 24.761 17.65 24.761 17.609 24.761 17.53 24.761 17.301 24.779 17.012 24.814 16.743 24.876 16.494 24.948 16.264 25.045 16.056 25.17 15.856 25.303 15.727 25.419 15.686 25.464 15.637 25.517 15.507 25.668 15.358 25.882 15.248 26.104 15.159 26.326 15.089 26.549 15.049 26.762 15.029 26.967 15.019 27.1 15.019 27.153 15.019 27.225 15.039 27.429 15.089 27.687 15.159 27.936 15.248 28.167 15.358 28.389 15.497 28.585 15.667 28.772 15.796 28.906 15.846 28.941 15.896 28.985 16.056 29.092 16.284 29.225 16.514 29.332 16.773 29.421 17.042 29.483 17.331 29.528 17.64 29.545 17.889 29.554 17.969 29.554 18.048 29.545 18.268 29.537 18.586 29.501 18.875 29.457 19.054 29.404 19.115 29.377 19.125 29.377 19.154 29.359 19.194 29.341 19.224 29.323 19.244 29.305 19.254 29.279 19.274 29.252 19.284 29.216 19.294 29.19 19.304 29.172 19.304 29.154 19.324 29.083 19.343 28.967 19.363 28.843 19.384 28.718 19.394 28.603 19.404 28.505 19.414 28.434 19.414 28.398 19.414 28.389 19.414 28.381 19.414 28.354 19.404 28.318 19.394 28.301 19.374 28.283 19.363 28.274 19.343 28.265 19.334 28.265 19.324 28.265 19.314 28.265 19.294 28.265 19.264 28.274 19.254 28.291 19.234 28.309 19.224 28.327 19.224 28.345 19.214 28.371 19.214 28.381 19.214 28.389 19.204 28.416 19.184 28.496 19.145 28.629 19.084 28.763 19.025 28.852 19.005 28.879 18.985 28.896 18.915 28.958 18.806 29.03 18.696 29.083 18.567 29.119 18.427 29.154 18.287 29.172 18.128 29.181 17.998 29.19 17.959 29.19 17.899 29.19 17.729 29.181 17.51 29.154 17.291 29.11 17.082 29.039 16.882 28.95 16.693 28.843 16.514 28.718 16.384 28.612 16.345 28.576 16.305 28.541 16.205 28.425 16.075 28.256 15.966 28.078 15.867 27.891 15.796 27.696 15.737 27.5 15.696 27.295 15.686 27.135 15.686 27.091 15.677 27.038 15.677 26.895 15.686 26.691 15.707 26.495 15.747 26.29 15.816 26.095 15.906 25.899 16.026 25.713 16.145 25.57 16.185 25.534 16.215 25.508 16.305 25.428 16.434 25.339 16.594 25.259 16.753 25.196 16.932 25.152 17.131 25.108 17.351 25.09 17.52 25.072 17.58 25.072 17.63 25.072 17.78 25.081 17.979 25.09 18.158 25.126 18.327 25.161 18.476 25.206 18.606 25.259 18.716 25.321 18.786 25.357 18.806 25.375 18.836 25.401 18.905 25.481 18.985 25.615 19.045 25.775 19.064 25.908 19.075 25.952 19.075 25.962 19.075 25.98 19.075 26.006 19.084 26.033 19.095 26.059 19.105 26.086 19.125 26.104 19.145 26.112 19.174 26.121 19.184 26.112 19.204 26.112 19.234 26.104 19.254 26.077 19.264 26.059 19.274 26.033 19.274 26.006 19.274 25.98 19.274 25.952 19.274 25.739 19.274 25.704 19.274 25.525 19.274 25.357 19.274 25.33 19.274 25.294 19.284 25.17 19.294 25.081 19.294 25.072 19.294 24.993 19.294 24.983 19.294 24.948 19.264 24.912 19.224 24.894 19.184 24.886 19.164 24.886 19.125 24.886 18.875 24.859 18.616 24.823 18.557 24.814 18.537 24.814 18.467 24.796 18.248 24.779 17.989 24.761"/>
    <polygon fill="#B3D056" points="1.003 11.421 1.003 22.849 6.265 20.866 6.265 9.438"/>
    <polygon fill="#B3D056" points="18.14 0 12.878 1.983 12.878 13.411 18.14 11.428"/>
    <polygon fill="#B3D056" points="6.942 9.18 6.942 20.607 12.203 13.662 12.203 2.243"/>
    <path fill="#005B47" d="M53.3858082,14.8448507 L53.3858082,18.7135075 L49.0611574,18.7135075 L49.0611574,18.695597 L49.0706897,18.6333582 L49.0706897,18.5357463 L49.0812253,18.4108209 L49.0907576,18.2778358 L49.0907576,18.144403 L49.0907576,18.0284328 L49.1007916,17.9218657 L49.1007916,17.8685821 L49.1007916,17.8506716 L49.1007916,14.8448507 L53.3858082,14.8448507 Z M53.3858082,11.705597 L53.3858082,13.6175373 L49.1007916,13.6175373 L49.1007916,11.705597 L46.9986701,11.705597 L46.9986701,13.6175373 L44.247851,13.6175373 L44.247851,14.8448507 L46.9986701,14.8448507 L46.9986701,17.4947015 L46.9986701,17.5215672 L46.9986701,17.6106716 L46.9881345,17.7441045 L46.9881345,17.904403 L46.9786022,18.0727612 L46.9685682,18.2509701 L46.9485002,18.4197761 L46.9384662,18.5800746 L46.9284322,18.6776866 L46.9183982,18.7135075 L44.247851,18.7135075 L44.247851,19.9318657 L46.6795892,19.9318657 L46.6595212,19.9941045 L46.6098529,20.1897761 L46.5100147,20.4297761 L46.4106782,20.6787313 L46.290772,20.9097761 L46.1512995,21.1412687 L46.021861,21.3548507 L45.8723545,21.5679851 L45.7233497,21.7636567 L45.5633075,21.9508209 L45.413801,22.1375373 L45.2547622,22.2973881 L45.1052557,22.4572388 L44.9657832,22.5996269 L44.825809,22.7335075 L44.7064045,22.8485821 L44.6166003,22.9287313 L44.587,22.9466418 L45.2743285,24.1381343 L45.3044305,24.1117164 L45.413801,24.0494776 L45.6029418,23.9335075 L45.8126522,23.8000746 L46.0414272,23.6317164 L46.300806,23.435597 L46.5601847,23.2135075 L46.838628,22.9735075 L47.1180747,22.715597 L47.396518,22.4308209 L47.6664324,22.1196269 L47.9152754,21.7994776 L48.1540844,21.4614179 L48.3738289,21.0969403 L48.5629696,20.7230597 L48.7124761,20.3317164 L48.8017786,20.0294776 L48.8218466,19.9318657 L53.3858082,19.9318657 L53.3858082,23.8627612 L55.4387631,23.8627612 L55.4387631,19.9318657 L57.9593021,19.9318657 L57.9593021,18.7135075 L55.4387631,18.7135075 L55.4387631,14.8448507 L57.9593021,14.8448507 L57.9593021,13.6175373 L55.4387631,13.6175373 L55.4387631,11.705597 L53.3858082,11.705597 Z"/>
    <polygon fill="#005B47" points="113.396 13.449 121.218 13.449 121.218 12.169 113.396 12.169"/>
    <polygon fill="#005B47" points="112.961 15.87 112.961 17.097 117.675 17.097 117.675 21.989 117.675 22.025 117.664 22.113 117.625 22.22 117.565 22.309 117.496 22.389 117.395 22.442 117.286 22.487 117.167 22.514 117.067 22.522 117.037 22.522 114.994 22.522 115.234 23.75 117.884 23.75 117.934 23.75 118.093 23.741 118.292 23.732 118.482 23.705 118.661 23.67 118.821 23.625 118.97 23.563 119.1 23.501 119.209 23.412 119.319 23.314 119.409 23.207 119.488 23.083 119.548 22.94 119.598 22.789 119.628 22.611 119.648 22.425 119.658 22.274 119.658 22.22 119.658 17.097 121.66 17.097 121.66 15.87"/>
    <polygon fill="#005B47" points="107.283 18.282 107.93 19.144 108.05 19.082 108.598 18.779 109.136 18.45 109.236 18.388 109.236 23.866 111.119 23.866 111.119 16.974 111.239 16.868 111.607 16.538 112.036 16.12 112.405 15.72 112.644 15.453 112.724 15.355 111.308 14.413 111.259 14.475 111.119 14.671 110.92 14.929 110.7 15.196 110.462 15.453 110.222 15.72 109.973 15.987 109.714 16.254 109.455 16.512 109.186 16.761 108.917 17.01 108.638 17.25 108.369 17.481 108.089 17.703 107.821 17.908 107.552 18.104 107.352 18.246"/>
    <polygon fill="#005B47" points="112.419 12.463 110.974 11.431 110.925 11.494 110.775 11.68 110.566 11.93 110.347 12.187 110.128 12.428 109.888 12.677 109.659 12.908 109.42 13.139 109.181 13.361 108.952 13.575 108.712 13.779 108.493 13.966 108.274 14.144 108.075 14.313 107.885 14.455 107.706 14.589 107.586 14.678 107.547 14.704 108.274 15.602 108.324 15.576 108.473 15.514 108.703 15.398 108.952 15.265 109.21 15.113 109.49 14.945 109.769 14.758 110.058 14.562 110.347 14.349 110.646 14.135 110.935 13.904 111.214 13.664 111.483 13.432 111.742 13.183 111.991 12.943 112.21 12.703 112.37 12.525"/>
    <polygon fill="#005B47" points="70.242 22.293 70.242 18.896 73.65 18.896 73.65 17.713 70.242 17.713 70.242 14.804 73.989 14.804 73.989 13.613 69.754 13.613 69.774 13.613 70.89 12.973 70.85 12.946 70.75 12.848 70.601 12.715 70.441 12.581 70.272 12.448 70.103 12.305 69.923 12.163 69.744 12.03 69.564 11.896 69.385 11.772 69.216 11.647 69.046 11.532 68.897 11.425 68.757 11.327 68.628 11.247 68.518 11.176 68.449 11.131 68.419 11.122 66.914 11.976 66.974 12.012 67.123 12.128 67.372 12.314 67.631 12.519 67.91 12.741 68.189 12.973 68.458 13.195 68.718 13.417 68.887 13.569 68.947 13.613 64.503 13.613 64.503 14.804 68.259 14.804 68.259 17.713 64.831 17.713 64.831 18.896 68.259 18.896 68.259 22.293 64.173 22.293 64.173 23.485 74.328 23.485 74.328 22.293"/>
    <polygon fill="#005B47" points="64.667 12.01 62.794 11.325 62.774 11.37 62.734 11.486 62.664 11.69 62.565 11.939 62.455 12.233 62.315 12.562 62.166 12.926 61.997 13.309 61.807 13.718 61.598 14.136 61.369 14.572 61.12 15.007 60.851 15.443 60.571 15.87 60.263 16.288 59.944 16.688 59.695 16.973 59.605 17.071 60.252 18.04 60.332 17.987 60.571 17.8 60.89 17.524 61.209 17.222 61.448 16.973 61.528 16.893 61.528 23.865 63.411 23.865 63.411 14.607 63.442 14.572 63.501 14.456 63.601 14.287 63.7 14.109 63.8 13.922 63.9 13.736 63.989 13.549 64.089 13.362 64.179 13.176 64.268 12.998 64.348 12.82 64.427 12.651 64.498 12.49 64.557 12.348 64.597 12.224 64.637 12.108 64.657 12.037"/>
    <polygon fill="#005B47" points="29.631 18.668 40.921 18.668 40.921 17.175 29.631 17.175"/>
    <polygon fill="#005B47" points="29.015 14.224 41.531 14.224 41.531 12.73 29.015 12.73"/>
    <polygon fill="#005B47" points="28.47 23.485 42.073 23.485 42.073 21.981 28.47 21.981"/>
    <path fill="#005B47" d="M81.5157557 17.277806L85.74107 17.277806 85.7109681 17.3758657 85.6211638 17.6870597 85.4816913 18.0873582 85.3121169 18.4787015 85.1129421 18.8610896 84.8836654 19.2434776 84.6147544 19.599 84.3157414 19.9549701 84.0668984 20.2213881 83.9770941 20.3015373 83.8672219 20.2303433 83.5386086 19.9992985 83.1302251 19.670194 82.7609742 19.3142239 82.4228286 18.940791 82.1238157 18.558403 81.864437 18.149597 81.6652622 17.7224328 81.5458577 17.3933284 81.5157557 17.277806zM89.6869377 22.3916866L89.5870995 22.3648209 89.2785542 22.3025821 88.8200007 22.1870597 88.331847 22.0625821 87.8035573 21.920194 87.2456673 21.7513881 86.6677093 21.5646716 86.0797173 21.3421343 85.6211638 21.1554179 85.4716573 21.0931791 85.5313596 21.0309403 85.7210021 20.8527313 85.9698451 20.5952687 86.2086541 20.328403 86.4384325 20.0436269 86.6476413 19.7592985 86.85685 19.4566119 87.0459908 19.1454179 87.2351316 18.8252687 87.3951738 18.5051194 87.5542125 18.1760149 87.693685 17.8379552 87.8231235 17.5003433 87.9329958 17.1622836 88.0228 16.8152687 88.1025702 16.477209 88.1522385 16.2197463 88.1622725 16.1306418 81.306547 16.1306418 81.3461812 15.9882537 81.5057217 15.2857164 81.6451942 14.5473582 81.6652622 14.4054179 89.6166997 14.4054179 89.6166997 13.160194 81.824301 13.160194 81.844369 13.0088507 81.9146069 12.2440746 81.9642752 11.4439254 81.9743092 11.2836269 79.8019497 11.2836269 79.8019497 11.3194478 79.7914141 11.4260149 79.7914141 11.6127313 79.7718478 11.8352687 79.7618138 12.0842239 79.7422475 12.3510896 79.7221795 12.6264627 79.7021115 12.8933284 79.6825452 13.0979552 79.6720095 13.160194 76.0055886 13.160194 76.0055886 14.4054179 79.5129708 14.4054179 79.5029368 14.5209403 79.4432345 14.8769104 79.3534303 15.3569104 79.2440597 15.8458657 79.1241535 16.3531791 78.984681 16.8600448 78.8256422 17.3758657 78.6359998 17.8916866 78.4363233 18.4254179 78.2075483 18.9497463 77.9582036 19.4834776 77.6692246 20.017209 77.3606793 20.5594478 77.0215304 21.0931791 76.6532828 21.6264627 76.2443976 22.160194 75.9157844 22.5515373 75.8059121 22.6849701 76.5133086 23.7340746 76.5333766 23.7255672 76.5830449 23.690194 76.6929171 23.6010896 76.8424236 23.4676567 77.0315643 23.2894478 77.2508071 23.0673582 77.5001518 22.8004925 77.7690628 22.4982537 78.0580418 22.160194 78.3670888 21.7867612 78.6761358 21.369 78.994715 20.9243731 79.32383 20.4439254 79.6424093 19.9281045 79.9514562 19.3858657 80.2600015 18.8163134 80.479746 18.3627313 80.5489805 18.2113881 80.5790825 18.3273582 80.718555 18.6475075 80.9277637 19.0742239 81.1670745 19.4745224 81.4460195 19.8569104 81.7450324 20.2213881 82.0736457 20.568403 82.412293 20.8975075 82.6917397 21.1375075 82.7810422 21.2087015 82.6817057 21.2709403 82.3826927 21.4487015 81.9442072 21.6712388 81.4856537 21.8937761 80.9975 22.1069104 80.4692103 22.3025821 79.9113203 22.4892985 79.3132943 22.6675075 78.8452085 22.8004925 78.685668 22.8363134 79.3333623 23.859 79.3835322 23.8500448 79.522503 23.8142239 79.7317118 23.7703433 79.9609885 23.7166119 80.2103332 23.6454179 80.479746 23.5742239 80.7581893 23.4855672 81.0572022 23.3969104 81.3762832 23.2894478 81.6948625 23.1739254 82.0239774 23.0494478 82.3525907 22.9160149 82.7012719 22.7740746 83.0404209 22.6227313 83.3790682 22.4539254 83.7182171 22.2761642 83.9770941 22.1427313 84.0563627 22.0894478 84.1366346 22.1337761 84.3754436 22.267209 84.6945246 22.4360149 85.0136056 22.5958657 85.3422188 22.747209 85.6612998 22.8806418 85.9899131 23.0140746 86.2984583 23.1385522 86.6175393 23.2540746 86.9165523 23.3606418 87.2155653 23.4587015 87.4945103 23.5473582 87.773957 23.6275075 88.0323323 23.6987015 88.2721447 23.7609403 88.4908858 23.8142239 88.6403923 23.8500448 88.6905622 23.8675075 89.6869377 22.3916866zM93.1308047 14.9615821L93.2105749 14.8993433 93.4398517 14.6947164 93.7388646 14.4282985 94.0077757 14.1609851 94.2571204 13.9035224 94.4763631 13.6630746 94.6755379 13.4320299 94.8345767 13.2184478 94.9349166 13.0765075 94.9645169 13.0227761 94.9946188 13.0765075 95.1140234 13.227403 95.2830961 13.4409851 95.4822709 13.6809851 95.7020153 13.9209851 95.9508583 14.1788955 96.2197694 14.436806 96.4992161 14.7036716 96.7284928 14.8993433 96.8077613 14.9615821 93.1308047 14.9615821zM96.9773358 16.0290448L96.9773358 15.1039701 97.0169701 15.1303881 97.4358893 15.4509851 97.4855575 15.477403 98.1031498 14.2859104 98.0635155 14.2500896 97.944111 14.1435224 97.7840688 13.9921791 97.62503 13.8323284 97.4659913 13.6630746 97.2964168 13.4853134 97.1469103 13.3075522 96.9974038 13.129791 96.8478973 12.9515821 96.7084248 12.7738209 96.5784846 12.6050149 96.4590801 12.426806 96.3396756 12.2669552 96.2398373 12.1160597 96.1505348 11.9647164 96.0807986 11.8312836 96.0306286 11.7421791 96.0210963 11.7153134 93.8487369 11.7153134 93.8286689 11.7600896 93.7684649 11.8845672 93.6691284 12.0623284 93.5592562 12.2490448 93.4398517 12.4536716 93.3003792 12.6493433 93.1508727 12.8629254 92.9918339 13.0675522 92.8222594 13.2806866 92.6526849 13.4853134 92.4635442 13.6988955 92.2739017 13.9035224 92.0747269 14.099194 91.8755522 14.2948657 91.6763774 14.4815821 91.4671687 14.6593433 91.3071265 14.7748657 91.2579599 14.819194 91.795782 15.9309851 91.8655182 15.8866567 92.2041655 15.6641194 92.5428127 15.4330746 92.602515 15.379791 92.602515 16.0290448 93.9681414 16.0290448 93.9681414 17.2026269 91.7260457 17.2026269 91.7260457 18.2700896 93.9681414 18.2700896 93.9681414 22.2005373 93.9084391 22.2094925 93.7187967 22.2363582 93.4398517 22.2806866 93.1413404 22.3254627 92.8317917 22.3608358 92.5031784 22.4056119 92.1840975 22.4499403 91.8655182 22.4853134 91.6262075 22.5121791 91.5469389 22.5121791 91.9849227 23.8635224 92.0847609 23.8460597 92.3837739 23.7838209 92.7921574 23.6947164 93.2206089 23.6060597 93.6490604 23.5169552 94.0780136 23.4193433 94.5059634 23.3212836 94.9243809 23.2321791 95.3332661 23.1345672 95.7321173 23.0454627 96.1103988 22.9478507 96.4590801 22.8681493 96.788195 22.778597 97.0766723 22.707403 97.336051 22.6366567 97.5552938 22.5654627 97.6752 22.5300896 97.7243666 22.5121791 97.7243666 21.4626269 97.6646643 21.4805373 97.5056255 21.5159104 97.2567825 21.5781493 96.9974038 21.6408358 96.7179571 21.7026269 96.4395138 21.7563582 96.1505348 21.8181493 95.8710881 21.8718806 95.6719133 21.9072537 95.6122111 21.916209 95.6122111 18.2700896 97.7243666 18.2700896 97.7243666 17.2026269 95.6122111 17.2026269 95.6122111 16.0290448 96.9773358 16.0290448z"/>
    <polygon fill="#005B47" points="93.194 19.033 91.819 19.033 92.218 21.372 93.473 21.372"/>
    <path fill="#005B47" d="M100.05446,16.9208507 L103.103791,16.9208507 L103.103791,15.4535373 L100.05446,15.4535373 L100.05446,16.9208507 Z M100.05446,14.430403 L103.103791,14.430403 L103.103791,12.981 L100.05446,12.981 L100.05446,14.430403 Z M103.522208,20.6381642 L103.542778,20.6296567 L103.60248,20.602791 L103.691783,20.5495075 L103.801153,20.4872687 L103.921059,20.4071194 L104.050498,20.3269701 L104.190472,20.2378657 L104.339477,20.149209 L104.478949,20.042194 L104.628958,19.9445821 L104.777962,19.8465224 L104.917435,19.7399552 L105.056907,19.6423433 L105.186848,19.5442836 L105.296218,19.4466716 L105.405589,19.3575672 L105.465793,19.2953284 L105.495393,19.2774179 L104.369579,18.3707015 L104.329443,18.4150299 L104.210038,18.5305522 L104.020898,18.7083134 L103.811689,18.9039851 L103.591945,19.0996567 L103.373203,19.2863731 L103.153459,19.4641343 L102.964318,19.6065224 L102.854446,19.6956269 L102.814812,19.7224925 L102.735042,19.6244328 L102.535867,19.2953284 L102.296556,18.8596567 L102.087347,18.4060746 L101.967943,18.0680149 L101.928309,17.9524925 L104.787996,17.9524925 L104.787996,11.940403 L98.3707564,11.940403 L98.3707564,23.8844328 L98.4304586,23.8754776 L98.6095654,23.8486119 L98.8594118,23.7953284 L99.1177871,23.7335373 L99.3866981,23.6708507 L99.6561108,23.5907015 L99.9350558,23.511 L100.214503,23.4218955 L100.483414,23.332791 L100.742291,23.2351791 L101.001168,23.1460746 L101.240478,23.0480149 L101.469755,22.9508507 L101.678964,22.8612985 L101.868606,22.781597 L102.027645,22.7014478 L102.137517,22.639209 L102.167118,22.6212985 L102.167118,21.4920448 L102.127483,21.5099552 L101.997543,21.5632388 L101.758734,21.6523433 L101.479789,21.7499552 L101.180776,21.8480149 L100.871729,21.9366716 L100.562682,22.0257761 L100.283737,22.0965224 L100.114664,22.1323433 L100.05446,22.1502537 L100.05446,17.9524925 L100.652486,17.9524925 L100.672554,18.0501045 L100.742291,18.3438358 L100.871729,18.7351791 L101.021236,19.1444328 L101.19081,19.5532388 L101.389985,19.9624925 L101.609228,20.3712985 L101.848538,20.771597 L102.097883,21.1718955 L102.376326,21.572194 L102.655773,21.9545821 L102.954786,22.3280149 L103.263331,22.6839851 L103.582412,23.0305522 L103.911025,23.3507015 L104.239639,23.6618955 L104.488983,23.8754776 L104.578788,23.9466716 L105.814474,22.6745821 L105.754772,22.639209 L105.565129,22.5057761 L105.296218,22.3011493 L105.017273,22.0790597 L104.71826,21.8301045 L104.419247,21.5632388 L104.120234,21.2699552 L103.821221,20.9672687 L103.591945,20.7183134 L103.522208,20.6381642 Z"/>
    <polygon fill="#005B47" points="97.338 20.88 97.687 19.038 96.362 19.038 96.113 20.88"/>
  </g>
</svg>
