<?xml version="1.0" encoding="UTF-8"?>
<svg width="342px" height="48px" viewBox="0 0 342 48" version="1.1" xmlns="http://www.w3.org/2000/svg" xmlns:xlink="http://www.w3.org/1999/xlink">
    <title>softbank</title>
    <defs>
        <polygon id="path-1" points="0 21.4740908 107.974895 21.4740908 107.974895 0 0 0"></polygon>
        <polygon id="path-3" points="0.126553681 0.142936917 103.471376 0.142936917 103.471376 20.8030254 0.126553681 20.8030254"></polygon>
    </defs>
    <g id="Symbols" stroke="none" stroke-width="1" fill="none" fill-rule="evenodd">
        <g id="sp/05_parts/payment/softbank-Copy-1" transform="translate(-16.000000, -72.000000)">
            <g id="Group-2" transform="translate(16.000000, 72.000000)">
                <rect id="Rectangle" fill="#FFFFFF" x="0" y="0" width="342" height="48" rx="4"></rect>
                <g id="Group" transform="translate(45.000000, 12.000000)">
                    <g id="Group" transform="translate(0.000000, 1.384615)">
                        <g id="Group-13" transform="translate(145.025105, 0.000000)">
                            <path d="M43.0747425,10.014465 L46.1269629,10.014465 L46.1269629,11.5581713 C46.8259213,10.6473845 47.7476919,9.81687057 49.2890632,9.81687057 C50.6869801,9.81687057 51.7491528,10.4343531 52.3077091,11.5365594 C53.1528689,10.4414541 54.45342,9.80575588 55.8269192,9.81687057 C58.0855622,9.81687057 59.4468525,11.1938566 59.4468525,13.8027202 L59.4468525,20.8605453 L56.3946322,20.8605453 L56.3946322,14.8092167 C56.3946322,13.351958 55.7536659,12.6048041 54.6151877,12.6048041 C53.4767095,12.6048041 52.7838555,13.351958 52.7838555,14.8092167 L52.7838555,20.8605453 L49.7316351,20.8605453 L49.7316351,14.8092167 C49.7316351,13.351958 49.0906688,12.6048041 47.9521906,12.6048041 C46.8137124,12.6048041 46.1208584,13.351958 46.1208584,14.8092167 L46.1208584,20.8605453 L43.0686381,20.8605453 L43.0747425,10.014465 Z" id="Fill-1" fill="#FF0033"></path>
                            <path d="M69.2048849,15.3792552 L69.2048849,15.3369753 C69.2048849,13.7756381 68.0739023,12.4075805 66.4032015,12.4075805 C64.6748903,12.4075805 63.6406324,13.7333582 63.6406324,15.2977153 L63.6406324,15.3369753 C63.6406324,16.9013324 64.7749504,18.266672 66.4426191,18.266672 C68.1709303,18.266672 69.2048849,16.9405924 69.2048849,15.3762352 M60.6600536,15.3732152 L60.6600536,15.3369753 C60.6600536,12.2901028 63.1254744,9.81672721 66.4426191,9.81672721 C69.7597638,9.81672721 72.1854638,12.2505408 72.1854638,15.2977153 L72.1854638,15.3369753 C72.1854638,18.3841498 69.7233783,20.8605453 66.4032015,20.8605453 C63.0830246,20.8605453 60.6600536,18.4267317 60.6600536,15.3792552" id="Fill-3" fill="#FF0033"></path>
                            <path d="M82.4270807,15.3494775 L82.4270807,15.3100105 C82.4270807,13.540068 81.2012387,12.3651662 79.7508149,12.3651662 C78.3003912,12.3651662 77.0745492,13.5279243 77.0745492,15.3069746 L77.0745492,15.3494775 C77.0745492,17.1194199 78.281676,18.2943217 79.7317879,18.2943217 C81.1825235,18.2943217 82.4080536,17.1406714 82.4080536,15.3494775 M77.1244562,19.2658167 L77.1244562,20.6593049 L74.0052654,20.6593049 L74.0052654,6.1354545 L77.1244562,6.1354545 L77.1244562,11.5272518 C77.8874103,10.4236942 79.1734527,9.77218535 80.5399702,9.79677632 C83.0945875,9.79677632 85.5306756,11.7458382 85.5306756,15.3069746 L85.5306756,15.3494775 C85.5306756,18.9136498 83.1382562,20.8596757 80.5399702,20.8596757 C79.206828,20.8863918 77.9391889,20.2962086 77.1244562,19.2688527" id="Fill-5" fill="#FF0033"></path>
                            <mask id="mask-2" fill="white">
                                <use xlink:href="#path-1"></use>
                            </mask>
                            <g id="Clip-8"></g>
                            <path d="M87.4344057,20.8605453 L90.3284922,20.8605453 L90.3284922,10.0506542 L87.4344057,10.0506542 L87.4344057,20.8605453 Z M87.3504772,8.85947318 L90.3834799,8.85947318 L90.3834799,6.1354545 L87.3504772,6.1354545 L87.3504772,8.85947318 Z" id="Fill-7" fill="#FF0033" mask="url(#mask-2)"></path>
                            <polygon id="Fill-9" fill="#FF0033" mask="url(#mask-2)" points="92.2032815 20.8605453 95.2362841 20.8605453 95.2362841 6.1354545 92.2032815 6.1354545"></polygon>
                            <path d="M104.464332,14.4827033 C104.287881,13.1343179 103.504319,12.2238024 102.251219,12.2238024 C100.998118,12.2238024 100.214557,13.1158717 99.978292,14.4827033 L104.464332,14.4827033 Z M97.0593755,15.3838445 L97.0593755,15.347557 C97.0593755,12.3235932 99.1947304,9.81672721 102.25421,9.81672721 C105.762293,9.81672721 107.368295,12.5715582 107.368295,15.5837285 C107.368295,15.8226217 107.34736,16.0978024 107.329416,16.376007 L100.017171,16.376007 C100.31624,17.7425363 101.252327,18.4564941 102.583186,18.4564941 C103.582077,18.4564941 104.308517,18.1540977 105.130957,17.3675648 L106.835951,18.8795466 C105.857995,20.1075783 104.443397,20.8605453 102.544307,20.8605453 C99.3891255,20.8605453 97.0560858,18.6225097 97.0560858,15.3717487 L97.0593755,15.3838445 Z" id="Fill-10" fill="#FF0033" mask="url(#mask-2)"></path>
                            <path d="M31.80283,4.01866135 C31.2409962,4.07430435 28.9086267,4.60909544 28.1250963,4.77911572 C27.283864,5.00787029 19.2268637,11.4253633 18.710584,12.9060855 C18.5982172,13.4192376 18.710584,18.9371688 18.710584,18.9371688 L23.2659931,19.2462966 L23.1050354,20.7919356 C22.473352,20.7362925 18.2216367,20.7424751 15.5855733,20.7424751 C14.243246,20.7424751 10.1403408,20.8939477 8.75853338,20.8537611 L8.93163893,19.3946779 C9.93686589,19.4487753 10.9448261,19.3529457 11.9230243,19.1102803 C12.7308502,18.8907996 13.3078687,18.5662154 13.3078687,17.7408442 L13.3078687,12.9555459 C13.0284703,12.1023532 6.32290794,3.51478304 4.59185245,2.13607307 C4.0877205,1.97223534 0.783530379,1.60746454 0,1.43744425 L0.16399473,0 L15.4549849,0 L15.2363252,1.32306697 C14.5773094,1.49617853 11.3277842,1.54563898 10.4865519,1.78366738 C12.6701114,5.0913348 16.1231116,9.34493327 17.2437422,11.0018583 C17.8511301,10.0744749 23.7215341,5.91361474 23.8885657,4.60291288 C23.0503704,4.43289259 20.265497,4.01866135 19.8190669,4.01866135 L19.5518162,2.55648687 L32.7564289,2.55648687 L31.80283,4.01866135 Z" id="Fill-11" fill="#FF0033" mask="url(#mask-2)"></path>
                            <path d="M33.2545234,16.1747611 L30.6875801,15.3873805 L34.8170107,1.84063635 L40.6422359,3.63084524 L39.498272,5.4988893 L33.2545234,16.1747611 Z M29.6862242,20.9445003 L27.9036247,20.4746872 L29.1436939,17.5851344 L30.8735905,18.2078157 L32.5352833,18.6499195 L31.295214,21.4740908 L29.6862242,20.9445003 Z" id="Fill-12" fill="#FF0033" mask="url(#mask-2)"></path>
                        </g>
                        <g id="Group-5">
                            <path d="M0,7.57552237 L27.6702903,7.57552237 L27.6702903,0.670931123 L0,0.670931123 L0,7.57552237 Z M0,21.3310196 L27.6702903,21.3310196 L27.6702903,14.4264284 L0,14.4264284 L0,21.3310196 Z" id="Fill-1" fill="#BBBCBE"></path>
                            <g id="Group-4" transform="translate(35.760852, 0.527994)">
                                <mask id="mask-4" fill="white">
                                    <use xlink:href="#path-3"></use>
                                </mask>
                                <g id="Clip-3"></g>
                                <path d="M71.8489156,13.2138133 L71.8489156,18.1682887 C71.1562146,18.8655256 70.2410017,19.6432903 68.8840761,19.6432903 C68.0562786,19.6432903 67.4278147,19.3547322 67.0119292,18.9588037 C66.5960438,18.54073 66.4397556,17.9508635 66.4397556,17.2194023 C66.4397556,15.9336411 67.1847734,15.1699688 68.2602479,14.5841287 C69.2820811,13.9412481 70.6588739,13.5486749 71.8489156,13.2138133 L71.8489156,13.2138133 Z M50.7844493,10.5255256 L54.2174911,10.5255256 C56.4810206,10.5255256 58.0352932,10.9261516 59.0028229,11.6857976 C59.9928687,12.4420882 60.5107388,13.508411 60.5107388,14.7418291 C60.5107388,16.2007251 60.0816086,17.2589952 59.4180461,17.9569031 C58.4783304,18.9393428 57.2214027,19.3272185 55.2572048,19.3272185 L51.8254875,19.3272185 C50.9678893,19.3272185 50.7844493,19.1312675 50.7844493,17.9569031 L50.7844493,10.5255256 Z M21.2426745,8.3646952 C22.4055644,8.3646952 23.3624983,8.7384786 23.9995713,9.52429611 C24.7439268,10.5047226 25.1439185,11.8978542 25.1439185,14.0573425 C25.1439185,16.3255433 24.6379687,17.7441754 23.9472545,18.6420608 C23.3128305,19.3694957 22.4558945,19.8546759 21.2949913,19.8546759 C20.1340881,19.8546759 19.2228486,19.3694957 18.5904113,18.6420608 C17.8996971,17.7441754 17.446064,16.3255433 17.446064,14.0573425 C17.446064,11.8978542 17.8473803,10.5047226 18.5904113,9.52429611 C19.2519871,8.7384786 20.1380615,8.3646952 21.2426745,8.3646952 L21.2426745,8.3646952 Z M79.702396,7.46882298 C78.7891698,8.14123045 77.8474674,8.4324728 76.6342473,8.62842388 L76.6342473,9.26056743 C78.0971311,9.23305375 78.2461346,9.42967589 78.2461346,11.0523119 L78.2461346,17.8515459 C78.2461346,19.5339067 78.1236206,19.6963045 76.6342473,19.6963045 L76.6342473,20.3814622 L81.4705714,20.3814622 L81.4705714,19.6963045 C80.1705983,19.6963045 80.1182815,19.5339067 80.1182815,17.8515459 L80.1182815,11.105326 C81.2255434,9.56254683 82.4943914,8.47072353 83.6552946,8.47072353 C84.4003124,8.47072353 84.9062622,8.68747763 85.2678441,9.04985291 C85.7923366,9.61287673 85.8916723,10.4879459 85.8916723,11.5797692 L85.8916723,17.8515459 C85.8916723,19.5339067 85.8175017,19.6963045 84.4877278,19.6963045 L84.4877278,20.3814622 L89.1684259,20.3814622 L89.1684259,19.6963045 C87.9240807,19.6963045 87.8161359,19.4728397 87.8161359,17.903889 L87.8161359,11.474412 C87.8161359,9.99269971 87.4644876,8.98274638 86.8280769,8.3646952 C86.2208046,7.77684197 85.3632064,7.46882298 84.1751514,7.46882298 C82.654653,7.46882298 81.2255434,8.36066881 80.1182815,9.78802478 L80.0666269,9.78802478 L79.9626555,7.6271944 L79.702396,7.46882298 Z M69.5085665,7.46882298 C68.046345,7.46882298 67.1079537,7.83790892 66.388101,8.25933795 C65.5020266,8.79082169 64.9318397,9.53704635 64.9318397,10.2094538 C64.9318397,10.6335671 65.1854768,11.0523119 65.7112938,11.0523119 C66.2920765,11.0523119 66.5629319,10.7597274 66.7000151,10.3678252 C66.9516656,9.74977406 67.1721908,9.27533087 67.5317861,8.99750982 C68.0291268,8.6009102 68.5748109,8.3646952 69.4045951,8.3646952 C70.3178213,8.3646952 70.9694635,8.64721371 71.3807133,9.20822433 C71.7429575,9.68468072 71.8489156,10.5154596 71.8489156,11.1583402 L71.8489156,12.3702842 L70.2363661,12.7393701 C68.4668661,13.1292591 67.0702062,13.7285204 66.1278415,14.3734142 C64.9126348,15.182719 64.4119829,16.1940145 64.4119829,17.4824599 C64.4119829,18.5474406 64.8397886,19.321179 65.5040133,19.8546759 C66.223866,20.4425291 67.1662307,20.697534 68.0523051,20.697534 C69.8767708,20.697534 70.9628411,20.0674036 71.9012324,19.1695182 L72.0052037,19.1695182 C72.2568542,20.0902198 72.8621397,20.5921767 73.8250338,20.5921767 C74.5475354,20.5921767 75.0197111,20.4465555 75.4899001,20.2230908 L75.3342742,19.5379331 C75.1137489,19.6775146 74.8779922,19.7486476 74.6058124,19.7486476 C74.0541681,19.7486476 73.7733792,19.2178349 73.7733792,17.9569031 L73.7733792,11.3690547 C73.7733792,10.1383209 73.5528539,9.38941197 72.8369747,8.57540972 C72.1442737,7.7936186 71.1687972,7.46882298 69.5085665,7.46882298 L69.5085665,7.46882298 Z M21.2949913,7.46882298 C19.5241669,7.46882298 18.2116112,7.98554329 17.1334877,8.99750982 C16.0288747,10.0873199 15.4692836,11.8455111 15.4692836,14.0573425 C15.4692836,16.6080618 16.1083433,18.2917647 17.1858045,19.3272185 C18.2924042,20.307645 19.6387341,20.697534 21.2949913,20.697534 C23.036015,20.697534 24.3505574,20.2801313 25.4558326,19.2742044 C26.5081288,18.2374084 27.1723535,16.5805481 27.1723535,14.0573425 C27.1723535,11.8455111 26.5352806,10.1443605 25.4558326,9.04985291 C24.3777092,8.01305697 23.144622,7.46882298 21.2949913,7.46882298 L21.2949913,7.46882298 Z M40.746908,4.25374895 C40.3886372,7.19301513 39.213827,7.88018603 37.4701544,8.04862343 L37.4701544,8.68143804 L39.5509062,8.68143804 L39.5509062,17.8515459 C39.5509062,20.0378767 40.8469059,20.697534 42.2548239,20.697534 C43.3865887,20.697534 44.2415379,20.3391851 44.9594039,19.6963045 L44.5435184,19.0641609 C43.988563,19.48559 43.4680439,19.7486476 42.8269976,19.7486476 C41.8621168,19.7486476 41.4747076,19.0594635 41.4747076,17.7461886 L41.4747076,8.68143804 L44.3872303,8.68143804 L44.3872303,7.78556582 L41.4747076,7.78556582 L41.4747076,4.25374895 L40.746908,4.25374895 Z M51.6168825,1.61914644 L54.2691457,1.61914644 C56.2061918,1.61914644 57.4439146,2.02782523 58.2227065,2.67271902 C58.8279921,3.17668909 59.2624202,4.30273672 59.2624202,5.2556495 C59.2624202,6.59845124 58.8127606,7.58693048 58.0141016,8.25933795 C57.0161089,9.10085388 55.4466048,9.47195301 53.5413461,9.47195301 L50.7844493,9.47195301 L50.7844493,2.56736176 C50.7844493,1.81040006 50.9010032,1.61914644 51.6168825,1.61914644 L51.6168825,1.61914644 Z M94.0054123,0.986331831 C92.9842413,1.62921242 92.0312808,1.94729739 90.6770041,2.14593273 L90.6770041,2.72573318 C92.171013,2.72573318 92.3412082,2.94718474 92.3412082,4.57049179 L92.3412082,17.8515459 C92.3412082,19.4748529 92.2809445,19.6963045 90.6770041,19.6963045 L90.6770041,20.3814622 L95.8259045,20.3814622 L95.8259045,19.6963045 C94.3054061,19.6963045 94.2656718,19.4748529 94.2656718,17.8515459 L94.2656718,14.9002005 L95.77425,13.3191706 L100.29866,20.3814622 L103.471442,20.3814622 L103.471442,19.6963045 C102.643645,19.7238182 102.000612,19.6245005 101.39069,18.6420608 L97.1781945,12.1595697 L100.090717,9.31358159 C100.725141,8.69620148 101.164867,8.49756614 101.963526,8.47072353 L101.963526,7.78556582 L97.8550018,7.78556582 L97.8550018,8.47072353 C99.1834512,8.47072353 99.0152427,8.92973222 98.270225,9.62965336 L94.3179886,13.5298851 L94.266334,13.5298851 L94.266334,1.14470325 L94.0054123,0.986331831 Z M35.0258339,0.986331831 C33.8066538,0.986331831 32.8762094,1.45003798 32.2172826,2.09291857 C31.3033942,3.04583135 30.8649926,4.33830319 30.8649926,6.04616447 L30.8649926,7.78556582 L28.8365576,7.78556582 L28.8365576,8.68143804 L30.8649926,8.68143804 L30.8649926,17.7992028 C30.8649926,19.5110904 30.7193002,19.6963045 28.7842408,19.6963045 L28.7842408,20.3814622 L34.9735171,20.3814622 L34.9735171,19.6963045 C32.8993877,19.6963045 32.7894562,19.5339067 32.7894562,17.8515459 L32.7894562,8.68143804 L36.2734903,8.68143804 L36.2734903,7.78556582 L32.7894562,7.78556582 L32.7894562,6.15152173 C32.7894562,4.16114194 33.119913,3.13239878 33.6735439,2.46200451 C34.0583042,2.04057547 34.472203,1.82986096 35.0258339,1.82986096 C35.8821077,1.82986096 36.2304449,2.42375378 36.5337499,3.04180496 C36.8397038,3.65985613 37.1224794,4.25374895 37.7827307,4.25374895 C38.2833826,4.25374895 38.5621848,3.97324364 38.5621848,3.41089089 C38.5621848,2.90692082 38.167491,2.20498648 37.366183,1.67148954 C36.8085786,1.30643 36.1569364,0.986331831 35.0258339,0.986331831 L35.0258339,0.986331831 Z M46.5196366,0.511888639 L46.5196366,1.35541777 C48.5897926,1.35541777 48.7566766,1.49835468 48.7566766,3.51624815 L48.7566766,17.4824599 C48.7566766,19.4708265 48.5897926,19.5909472 46.5196366,19.5909472 L46.5196366,20.3814622 L55.5181265,20.3814622 C58.3929017,20.3814622 60.004789,19.7050283 61.0829124,18.6420608 C62.1875254,17.5777512 62.6431452,16.1940145 62.6431452,14.7941722 C62.6431452,13.2540772 61.8716379,12.1508458 60.8749697,11.3690547 C59.6869147,10.4416424 58.0975435,9.95042259 56.2982429,9.89338204 L56.2982429,9.84103894 C58.0386044,9.58804731 59.2147391,9.01428645 60.0425365,8.25933795 C61.0663565,7.33393885 61.3948265,6.10723141 61.3948265,5.04493499 C61.3948265,3.61556582 60.6769606,2.50629482 59.6266511,1.7768468 C58.1326422,0.76488027 56.4995633,0.511888639 53.9572316,0.511888639 L46.5196366,0.511888639 Z M6.99197501,0.142802704 C4.83440361,0.142802704 3.35496392,0.676299646 2.3629314,1.46077502 C1.19606805,2.36067364 0.698727312,3.57731509 0.698727312,4.78120631 C0.698727312,5.81800225 1.0331575,6.74138816 1.53049824,7.46882298 C2.33180621,8.61768684 4.62844759,9.86788156 6.31583001,10.7369112 C7.91778373,11.5482292 9.43430874,12.20386 10.3203832,13.2661564 C10.9011659,13.9640644 11.2044709,14.6767358 11.2044709,15.7960727 C11.2044709,17.0570045 10.6554756,18.0199833 9.80052636,18.695075 C8.94094143,19.3694957 7.7429529,19.7486476 6.47145594,19.7486476 C3.54237727,19.7486476 2.00068722,18.8722362 1.11461277,15.4276579 L0.126553681,15.6907155 C0.488797866,16.9214493 0.810645533,18.1172877 1.06229597,19.8546759 C2.66226298,20.4425291 4.60791821,20.8035623 6.21185864,20.8035623 C8.67273505,20.8035623 10.5137567,20.0741143 11.6726732,19.0111468 C12.7236449,18.058234 13.2329059,16.7785124 13.2329059,15.3223006 C13.2329059,13.9493009 12.6176868,12.6736057 12.0369041,12.0011983 C10.8468624,10.6288696 9.25351777,9.95847538 7.09594637,8.8391384 C5.35426044,7.94326617 4.2748125,7.32588606 3.55893322,6.62596492 C3.03510297,6.12199485 2.62319093,5.19659575 2.62319093,4.41212037 C2.62319093,3.54376183 2.94768755,2.81230061 3.61125003,2.25128999 C4.38474401,1.58290892 5.50657518,1.19704635 6.88800364,1.19704635 C10.1521747,1.19704635 10.7283218,2.21303927 11.3091045,5.09727808 L12.2971636,4.8335494 C12.0474999,3.57060444 11.7852536,2.08285259 11.6210186,0.933988735 C10.2078027,0.377004506 8.76213718,0.142802704 6.99197501,0.142802704 L6.99197501,0.142802704 Z" id="Fill-2" fill="#212121" mask="url(#mask-4)"></path>
                            </g>
                        </g>
                    </g>
                </g>
            </g>
        </g>
    </g>
</svg>
