<svg width="162" height="100" viewBox="0 0 162 100" fill="none" xmlns="http://www.w3.org/2000/svg">
<rect x="1" y="1" width="160" height="98" rx="5" fill="white" stroke="#C2C8D2" stroke-width="2"/>
<path d="M68.8279 34.5479L56.1282 64.5311H47.8427L41.5931 40.6031C41.2137 39.1293 40.8858 38.5894 39.7298 37.9685C37.8459 36.9571 34.7347 36.0082 32 35.4188L32.1859 34.5474H45.5237C47.2238 34.5474 48.752 35.6673 49.138 37.6045L52.4386 54.9523L60.5959 34.5449H68.831L68.8279 34.5479ZM101.292 54.7418C101.326 46.8283 90.2341 46.3929 90.3103 42.8574C90.3341 41.7815 91.3713 40.6376 93.6352 40.3457C94.7583 40.2002 97.8528 40.0892 101.365 41.6875L102.742 35.3293C100.856 34.6519 98.4292 34 95.41 34C87.6625 34 82.2061 38.075 82.1617 43.9112C82.1111 48.2277 86.0519 50.6364 89.023 52.0707C92.0781 53.5395 93.1032 54.4834 93.0916 55.7972C93.0698 57.8084 90.6549 58.6968 88.3981 58.7313C84.4574 58.7913 82.1723 57.6764 80.35 56.8381L78.9293 63.4067C80.7607 64.2381 84.1411 64.9635 87.6458 65C95.8809 65 101.267 60.975 101.292 54.7418V54.7418ZM121.751 64.5311H129L122.674 34.5479H115.981C115.266 34.5418 114.567 34.7483 113.972 35.1405C113.377 35.5327 112.916 36.0926 112.647 36.7476L100.884 64.5311H109.114L110.748 60.0526H120.802L121.751 64.5311ZM113.005 53.9074L117.13 42.6499L119.505 53.9074H113.005ZM80.0271 34.5479L73.5457 64.5311H65.7077L72.1917 34.5479H80.0271Z" fill="#1434CB"/>
</svg>
