<svg xmlns="http://www.w3.org/2000/svg" width="36" height="24" fill="none" viewBox="0 0 36 24">
    <path fill="#016FD0" fill-rule="evenodd" d="M0 2C0 .895.895 0 2 0h31c1.105 0 2 .895 2 2v20c0 1.105-.895 2-2 2H2c-1.105 0-2-.895-2-2V2z" clip-rule="evenodd"/>
    <path fill="#fff" fill-rule="evenodd" d="M7.4 18.151v-5.353h5.698l.612.793.631-.793h20.685v4.984s-.541.364-1.167.37H22.406l-.69-.845v.844h-2.258v-1.44s-.309.2-.976.2h-.769v1.24h-3.42l-.61-.81-.62.81H7.4z" clip-rule="evenodd"/>
    <path fill="#016FD0" fill-rule="evenodd" d="M8.09 17.466v-4.009h3.287v.897h-2.27v.686h2.217v.843H9.107v.713h2.27v.87H8.089zM24.198 17.466v-4.009h3.288v.897h-2.27v.686h2.206v.843h-2.206v.713h2.27v.87h-3.288zM11.504 17.466l1.601-1.98-1.639-2.029h1.27l.976 1.254.979-1.254h1.22l-1.618 2.004 1.604 2.005h-1.27l-.947-1.235-.925 1.235h-1.25zM16.017 17.466v-4.008h2.225c.913 0 1.447.585 1.447 1.348 0 .921-.68 1.395-1.578 1.395h-1.06v1.265h-1.034zm2.15-3.102h-1.116v.923h1.113c.294 0 .5-.194.5-.461 0-.285-.207-.462-.497-.462zM20.126 17.466v-4.009h2.242c.743 0 1.408.457 1.408 1.3 0 .722-.56 1.186-1.105 1.232l1.326 1.477h-1.231l-1.208-1.424h-.424v1.424h-1.008zm2.16-3.112h-1.152v.844H22.3c.202 0 .462-.156.462-.422 0-.207-.2-.422-.477-.422zM27.953 17.466v-.87h2.016c.298 0 .427-.16.427-.337 0-.168-.128-.339-.427-.339h-.911c-.792 0-1.233-.48-1.233-1.2 0-.643.404-1.263 1.58-1.263h1.962l-.424.902h-1.697c-.324 0-.424.17-.424.331 0 .166.124.35.371.35h.955c.883 0 1.266.498 1.266 1.15 0 .701-.427 1.276-1.314 1.276h-2.147zM31.65 17.466v-.87h2.016c.299 0 .428-.16.428-.337 0-.168-.13-.339-.428-.339h-.911c-.792 0-1.233-.48-1.233-1.2 0-.643.404-1.263 1.58-1.263h1.963l-.424.902h-1.697c-.325 0-.425.17-.425.331 0 .166.124.35.372.35h.954c.883 0 1.266.498 1.266 1.15 0 .701-.427 1.276-1.314 1.276H31.65z" clip-rule="evenodd"/>
    <path fill="#fff" fill-rule="evenodd" d="M.034 8.763l1.285-2.98h2.223l.729 1.67v-1.67h2.762l.435 1.206.42-1.206H20.29v.606s.652-.606 1.723-.606l4.024.014.716 1.647V5.783h2.312l.637.946v-.946h2.333v5.353h-2.333l-.61-.949v.95h-3.397l-.341-.845h-.913l-.336.844H21.8c-.922 0-1.511-.594-1.511-.594v.594h-3.473l-.69-.843v.843H3.212l-.341-.843h-.91l-.34.843H.035V8.763z" clip-rule="evenodd"/>
    <path fill="#016FD0" fill-rule="evenodd" d="M.041 10.451l1.733-4.008h1.314L4.82 10.45H3.667l-.319-.802H1.49l-.32.802H.041zm2.941-1.673l-.566-1.402-.569 1.402h1.135zM4.939 10.45V6.443l1.604.006.932 2.585.91-2.59h1.591v4.008H8.97V7.497L7.9 10.451h-.884l-1.07-2.954v2.954H4.938zM10.665 10.45V6.443h3.288v.897h-2.27v.685H13.9v.844h-2.216v.712h2.27v.87h-3.289zM14.537 10.451V6.443h2.242c.742 0 1.408.457 1.408 1.3 0 .721-.561 1.186-1.105 1.232l1.325 1.476h-1.23l-1.209-1.424h-.424v1.424h-1.007zm2.159-3.112h-1.152v.844h1.167c.202 0 .462-.155.462-.422 0-.207-.201-.422-.477-.422zM19.627 10.45h-1.029V6.443h1.029v4.009zM22.066 10.45h-.222c-1.075 0-1.727-.841-1.727-1.987 0-1.174.645-2.02 2.002-2.02h1.113v.949h-1.154c-.55 0-.94.427-.94 1.08 0 .777.445 1.103 1.087 1.103h.265l-.424.876zM22.525 10.451l1.733-4.008h1.314l1.732 4.008H26.15l-.319-.802h-1.859l-.32.802h-1.128zm2.941-1.673L24.9 7.376l-.568 1.402h1.135zM27.422 10.45V6.443h1.28l1.636 2.519V6.442h1.008v4.009h-1.24L28.43 7.866v2.585h-1.007z" clip-rule="evenodd"/>
</svg>
