<svg xmlns="http://www.w3.org/2000/svg" width="40" height="26" viewBox="0 0 40 26">
    <g fill="none" fill-rule="evenodd">
        <g>
            <g>
                <path fill="#FFF" stroke="#FFF" stroke-width=".5" d="M1.538.25c-.36 0-.687.126-.923.332-.223.195-.365.464-.365.763v23.31c0 .3.142.568.365.763.236.206.563.332.923.332h36.924c.36 0 .687-.126.923-.332.223-.195.365-.464.365-.763V1.345c0-.3-.142-.568-.365-.763-.236-.206-.563-.332-.923-.332H1.538z" transform="translate(-626 -2399) translate(626 2399)"/>
                <g fill="#004A97" fill-rule="nonzero">
                    <g>
                        <path d="M.44 10.26h.047c.123 0 .254-.018.254-.198V8.25c0-.18-.13-.198-.254-.198H.44v-.104c.133 0 .34.014.508.014.17 0 .376-.014.537-.014v.104h-.049c-.122 0-.252.018-.252.198v1.813c0 .18.13.198.253.198h.048v.103c-.164 0-.37-.012-.54-.012-.169 0-.372.012-.505.012v-.103zm3.398-.578l.007-.008V8.377c0-.284-.196-.326-.299-.326h-.075v-.104c.161 0 .319.014.48.014.14 0 .282-.014.422-.014v.104h-.051c-.145 0-.306.028-.306.44v1.574c0 .122.004.244.02.351h-.13L2.141 8.428v1.427c0 .301.059.405.323.405h.059v.104c-.149 0-.296-.014-.443-.014-.154 0-.311.014-.466.014v-.104h.048c.237 0 .308-.162.308-.44V8.364c.001-.083-.031-.163-.09-.221-.058-.059-.138-.092-.22-.091h-.047v-.104c.13 0 .264.014.393.014.104 0 .203-.014.305-.014l1.526 1.735zM4.886 8.12c-.258 0-.268.063-.319.315h-.103c.013-.097.03-.193.042-.293.013-.098.02-.195.02-.295h.082c.028.104.114.1.206.1H6.58c.093 0 .178-.004.186-.107l.082.014c-.013.093-.028.186-.038.28-.007.094-.007.187-.007.28l-.102.04c-.007-.13-.024-.334-.255-.334h-.56v1.843c0 .266.12.297.283.297h.065v.103c-.133 0-.373-.012-.557-.012-.205 0-.446.012-.58.012v-.103h.066c.188 0 .283-.018.283-.29V8.12h-.561zm2.072 2.14h.049c.123 0 .254-.018.254-.198V8.25c0-.18-.131-.198-.254-.198h-.05v-.104c.21 0 .567.014.853.014.289 0 .646-.014.879-.014-.007.149-.003.378.006.53l-.103.028c-.017-.225-.057-.405-.418-.405H7.7v.906h.407c.205 0 .25-.117.27-.305h.103c-.013.267-.013.534 0 .8l-.102.022c-.02-.209-.03-.343-.267-.343h-.411v.806c0 .225.199.225.418.225.41 0 .592-.027.695-.421l.096.023c-.046.182-.085.366-.117.55-.22 0-.613-.012-.92-.012-.31 0-.718.012-.913.012v-.103zM9.37 8.314c0-.252-.137-.263-.243-.263h-.062v-.104c.11 0 .323.014.53.014.206 0 .371-.014.553-.014.43 0 .815.118.815.61 0 .311-.205.501-.476.609l.586.887c.096.145.164.185.333.207v.103c-.115 0-.223-.012-.337-.012-.106 0-.216.012-.322.012-.263-.356-.501-.731-.712-1.121h-.226v.741c0 .267.123.277.28.277h.061v.103c-.195 0-.393-.012-.588-.012-.165 0-.326.012-.497.012v-.103h.062c.127 0 .244-.059.244-.186v-1.76H9.37zm.44.803h.166c.342 0 .528-.131.528-.54 0-.308-.195-.504-.5-.504-.103 0-.147.01-.196.013v1.03h.001zm3.92.565l.007-.008V8.377c0-.284-.195-.326-.297-.326h-.075v-.104c.16 0 .318.014.48.014.14 0 .28-.014.42-.014v.104h-.051c-.144 0-.304.028-.304.44v1.574c0 .122.003.244.02.351h-.13l-1.765-1.988v1.427c0 .301.06.405.323.405h.058v.104c-.147 0-.294-.014-.442-.014-.155 0-.313.014-.467.014v-.104h.048c.237 0 .31-.162.31-.44V8.364c0-.083-.033-.163-.091-.222-.06-.059-.14-.091-.223-.09h-.044v-.104c.13 0 .264.014.395.014.101 0 .202-.014.304-.014l1.525 1.735zm1.087.187c-.035.117-.076.208-.076.27 0 .104.145.12.257.12h.04v.105c-.262-.017-.524-.017-.786 0v-.104h.02c.134 0 .247-.08.298-.225l.547-1.589c.045-.128.108-.301.128-.43.108-.039.213-.088.311-.148.01-.004.018-.007.028-.007.01 0 .016 0 .024.01.01.028.02.059.032.087l.63 1.811c.041.12.082.248.125.353.042.097.115.138.227.138h.02v.104c-.328-.017-.658-.017-.987 0v-.104h.04c.078 0 .211-.014.211-.1 0-.045-.03-.139-.068-.25l-.134-.401h-.778l-.109.36zm.5-1.533h-.007l-.319.98h.64l-.314-.98zm1.476-.216c-.256 0-.267.063-.318.315h-.103c.014-.097.03-.193.042-.293.013-.098.02-.195.02-.295h.083c.026.104.112.1.205.1h1.768c.092 0 .177-.004.185-.107l.08.014c-.012.093-.026.186-.035.28-.008.094-.008.187-.008.28l-.103.04c-.006-.13-.023-.334-.253-.334h-.56v1.843c0 .266.119.297.283.297h.066v.103c-.134 0-.374-.012-.56-.012-.205 0-.445.012-.578.012v-.103h.065c.189 0 .284-.018.284-.29V8.12h-.562zm2.09 2.14h.049c.123 0 .252-.018.252-.198V8.25c0-.18-.13-.198-.252-.198h-.05v-.104c.135 0 .34.014.507.014.172 0 .378-.014.54-.014v.104h-.049c-.123 0-.254.018-.254.198v1.813c0 .18.131.198.254.198h.048v.103c-.164 0-.37-.012-.542-.012-.168 0-.37.012-.503.012v-.103zm2.412-2.364c.73 0 1.312.457 1.312 1.193 0 .797-.566 1.326-1.295 1.326-.727 0-1.281-.498-1.281-1.242 0-.72.551-1.277 1.264-1.277m.05 2.367c.666 0 .782-.592.782-1.097 0-.506-.27-1.118-.839-1.118-.6 0-.778.54-.778 1.003 0 .62.281 1.213.836 1.213m3.57-.582l.008-.008V8.377c0-.284-.197-.326-.3-.326h-.074v-.104c.16 0 .318.014.48.014.14 0 .28-.014.422-.014v.104h-.053c-.144 0-.305.028-.305.44v1.574c0 .122.004.244.021.351h-.13L23.22 8.428v1.427c0 .301.059.405.322.405h.059v.104c-.148 0-.295-.014-.442-.014-.155 0-.313.014-.467.014v-.104h.048c.237 0 .308-.162.308-.44V8.364c.001-.083-.031-.163-.09-.222s-.139-.091-.222-.09h-.044v-.104c.13 0 .264.014.394.014.103 0 .202-.014.304-.014l1.526 1.735zM26 9.869c-.033.117-.075.208-.075.27 0 .104.144.12.257.12h.039v.105c-.261-.017-.523-.017-.784 0l-.001-.104h.02c.133 0 .247-.08.297-.225l.55-1.589c.043-.128.106-.301.126-.43.109-.039.213-.088.312-.148.01-.004.017-.007.028-.007.01 0 .016 0 .023.01l.03.087.631 1.811c.041.12.082.248.127.353.041.097.114.138.226.138h.022v.104c-.33-.017-.66-.017-.988 0v-.104h.038c.078 0 .212-.014.212-.1 0-.045-.03-.139-.068-.25l-.134-.401h-.777l-.11.36zm.5-1.533h-.005l-.32.98h.642l-.316-.98zm2.19 1.688c0 .139.095.18.205.195.14.01.295.01.453-.007.13-.016.249-.084.329-.188.05-.076.085-.16.106-.25h.099c-.038.2-.085.392-.127.59-.3 0-.603-.013-.905-.013-.3 0-.602.012-.903.012v-.103h.047c.123 0 .258-.018.258-.232v-1.78c0-.18-.135-.197-.258-.197h-.047v-.104c.18 0 .36.014.54.014.177 0 .347-.014.522-.014v.104h-.086c-.13 0-.233.004-.233.188v1.785zm1.15-2.174c.206 0 .362.16.362.364 0 .206-.155.364-.362.364-.097.001-.19-.037-.258-.105-.067-.069-.104-.162-.102-.259 0-.205.153-.364.36-.364zm0 .66c.16-.004.287-.136.285-.296.003-.16-.125-.293-.285-.296-.16.004-.287.136-.286.296-.001.16.126.292.286.297zm-.18-.103v-.018c.045-.007.053-.005.053-.032v-.27c0-.039-.003-.052-.05-.05V8.02h.184c.064 0 .122.03.122.098 0 .053-.035.093-.085.109l.058.083c.03.04.06.073.08.086v.012h-.07c-.034 0-.063-.071-.129-.167h-.04v.12c0 .024.008.022.052.03v.017h-.174zm.122-.193h.043c.046 0 .069-.035.069-.093 0-.058-.034-.078-.07-.078h-.042v.171zM22.577 2.209h-.161c-.123-.902-.657-1.264-1.377-1.264-.741 0-1.817.593-1.817 2.444 0 1.558.928 2.676 1.919 2.676.637 0 1.166-.525 1.295-1.335l.148.046-.148 1.126c-.27.201-.998.41-1.424.41-1.506 0-2.459-1.164-2.459-2.9 0-1.58 1.179-2.715 2.44-2.715.522 0 1.024.202 1.52.41l.064 1.102zm.232 3.786h.122c.18 0 .309 0 .309-.255V1.445c0-.5-.096-.516-.34-.601V.72c.257-.1.528-.239.662-.333.07-.045.123-.084.141-.084.04 0 .052.047.052.108V5.74c0 .255.142.255.323.255h.108v.201c-.218 0-.443-.015-.674-.015-.233 0-.465.006-.703.015v-.201zm4.134-.224c0 .139.07.147.18.147.078 0 .174-.008.258-.008v.163c-.278.03-.805.193-.927.239l-.032-.024v-.626c-.387.379-.684.65-1.142.65-.347 0-.707-.271-.707-.918V3.42c0-.2-.026-.393-.386-.43V2.84c.232-.007.746-.053.83-.053.072 0 .072.053.072.224V5c0 .232 0 .894.56.894.218 0 .509-.2.778-.47V3.35c0-.155-.309-.239-.54-.316v-.139c.579-.047.94-.107 1.004-.107.052 0 .052.053.052.138V5.77zm1.28-2.544c.259-.262.607-.556.96-.556.748 0 1.199.78 1.199 1.62 0 1.01-.62 2.02-1.54 2.02-.477 0-.728-.185-.895-.27l-.193.178-.135-.084c.057-.456.09-.903.09-1.374V1.446c0-.501-.098-.517-.342-.602V.72c.258-.1.528-.239.664-.333.07-.045.122-.084.142-.084.039 0 .05.046.05.108v2.815zm0 2.097c0 .293.233.786.664.786.689 0 .978-.808.978-1.496 0-.832-.528-1.525-1.03-1.525-.238 0-.437.185-.611.362v1.873zM1.046 1.668c0-.693-.303-.647-.591-.655v-.2c.25.014.508.014.76.014.27 0 .637-.013 1.114-.013 1.666 0 2.575 1.333 2.575 2.698 0 .764-.374 2.684-2.653 2.684-.329 0-.632-.015-.934-.015-.29 0-.573.006-.862.015v-.201c.386-.046.573-.062.591-.587v-3.74zm.63 3.618c0 .592.356.663.67.663 1.392 0 1.849-1.257 1.849-2.406 0-1.443-.773-2.483-2.015-2.483-.265 0-.387.023-.503.031v4.195zm3.452.709h.123c.18 0 .31 0 .31-.255V3.65c0-.34-.098-.386-.336-.54v-.123c.303-.11.663-.254.689-.278.034-.025.075-.039.117-.039.03 0 .044.047.044.108v2.96c0 .256.142.256.323.256h.108v.201c-.218 0-.445-.015-.675-.015-.232 0-.464.006-.703.015v-.201zm.69-4.51c-.167 0-.316-.187-.316-.387 0-.193.155-.372.316-.372.167 0 .315.165.315.372 0 .21-.141.386-.315.386zm1.3 2.211c0-.284-.071-.36-.373-.508v-.146c.276-.108.54-.208.85-.37.019 0 .039.015.039.077v.5c.366-.315.682-.577 1.114-.577.546 0 .74.477.74 1.079V5.74c0 .255.141.255.322.255h.115v.201c-.225 0-.45-.015-.682-.015-.232 0-.464.006-.695.015v-.201h.115c.181 0 .31 0 .31-.255V3.744c0-.44-.226-.655-.592-.655-.207 0-.535.2-.748.37v2.28c0 .256.142.256.322.256h.116v.201c-.225 0-.45-.015-.683-.015-.23 0-.463.006-.694.015v-.201h.115c.18 0 .31 0 .31-.255V3.696zm3.297.372c-.013.068-.013.185 0 .446.038.734.431 1.334.946 1.334.355 0 .631-.232.87-.515l.089.107c-.295.47-.663.87-1.19.87-1.025 0-1.23-1.186-1.23-1.68 0-1.512.85-1.959 1.3-1.959.522 0 1.082.393 1.089 1.212 0 .046 0 .092-.007.138l-.059.047h-1.808zm1.14-.247c.16 0 .18-.102.18-.193 0-.394-.2-.71-.561-.71-.392 0-.662.347-.74.903h1.121zm.882 2.174h.173c.18 0 .31 0 .31-.255V3.574c0-.239-.24-.286-.336-.347V3.11c.47-.24.728-.44.787-.44.037 0 .057.024.057.101v.694h.014c.16-.3.43-.795.823-.795.161 0 .366.131.366.409 0 .208-.12.394-.3.394-.201 0-.201-.186-.427-.186-.109 0-.47.177-.47.64V5.74c0 .255.129.255.31.255h.36v.201c-.354-.009-.624-.015-.901-.015-.264 0-.535.006-.767.015v-.201h.001zm2.478-.871c.084.508.341.941.812.941.379 0 .52-.279.52-.547 0-.912-1.402-.618-1.402-1.86 0-.431.289-.987.998-.987.205 0 .483.07.733.224l.045.786h-.147c-.065-.486-.29-.762-.702-.762-.136-.005-.267.048-.363.144-.095.097-.145.229-.139.364 0 .903 1.493.624 1.493 1.835 0 .509-.341 1.05-1.107 1.05-.258 0-.561-.108-.785-.263l-.071-.887.115-.04v.002z" transform="translate(-626 -2399) translate(626 2399) translate(5 2) translate(0 11)"/>
                    </g>
                    <path d="M17.514 5.49c0-1.319-.81-2.502-2.04-2.978v5.957c1.23-.476 2.04-1.659 2.04-2.978zm-4.316 2.978V2.513c-1.229.477-2.038 1.66-2.04 2.977.001 1.319.811 2.501 2.04 2.978zM14.337.455c-2.77 0-5.013 2.254-5.014 5.035 0 2.782 2.245 5.035 5.014 5.035 2.77 0 5.013-2.254 5.014-5.035C19.35 2.71 17.106.456 14.337.455zM14.324 11c-3.03.014-5.524-2.451-5.524-5.452C8.8 2.268 11.294 0 14.324 0h1.421c2.993 0 5.727 2.267 5.727 5.548 0 3-2.734 5.452-5.728 5.452h-1.42z" transform="translate(-626 -2399) translate(626 2399) translate(5 2)"/>
                </g>
            </g>
        </g>
    </g>
</svg>
