<svg xmlns="http://www.w3.org/2000/svg" xmlns:xlink="http://www.w3.org/1999/xlink" width="40" height="26" viewBox="0 0 40 26">
    <defs>
        <linearGradient id="ss41prey3b" x1="-57.4%" x2="233.028%" y1="-12.043%" y2="-12.043%">
            <stop offset="0%" stop-color="#5EB245"/>
            <stop offset="100%" stop-color="#007544"/>
        </linearGradient>
        <linearGradient id="ep8faqrgee" x1="0%" x2="100.259%" y1="-1.058%" y2="-1.058%">
            <stop offset="0%" stop-color="#5EB245"/>
            <stop offset="100%" stop-color="#007544"/>
        </linearGradient>
        <linearGradient id="a1bzv6ydxh" x1="-.13%" x2="101.679%" y1="-1.058%" y2="-1.058%">
            <stop offset="0%" stop-color="#006DAA"/>
            <stop offset="100%" stop-color="#2F2E61"/>
        </linearGradient>
        <linearGradient id="g5dzhz55ck" x1="-.6%" x2="98.28%" y1="-1.058%" y2="-1.058%">
            <stop offset="0%" stop-color="#D81F43"/>
            <stop offset="100%" stop-color="#603133"/>
        </linearGradient>
        <linearGradient id="24wpz11min" x1="-62.432%" x2="253.414%" y1="-13.044%" y2="-13.044%">
            <stop offset="0%" stop-color="#5EB245"/>
            <stop offset="100%" stop-color="#007544"/>
        </linearGradient>
        <path id="ben916gapa" d="M.063 1.981H2.23c.068 0 .197-.01.258-.024.416-.09.763-.46.763-.963 0-.503-.347-.873-.763-.963C2.428.017 2.3.006 2.231.006H.063v1.975"/>
        <path id="wul6uqa9yd" d="M3.774.047C1.706.047.029 1.724.029 3.792v3.89h5.3c.122 0 .272.009.366.013 1.2.06 2.084.677 2.084 1.746 0 .84-.605 1.558-1.705 1.72v.042c1.215.084 2.146.753 2.146 1.807 0 1.14-1.022 1.873-2.383 1.873H.03v7.634h5.493c2.068 0 3.745-1.677 3.745-3.745V.047H3.774"/>
        <path id="xhk8o6l53g" d="M3.768.047C1.699.047.023 1.724.023 3.792v9.249c1.05.508 2.135.84 3.24.84 1.294 0 2.006-.79 2.006-1.854V7.682h3.22v4.345c0 1.7-1.043 3.062-4.622 3.062-2.155 0-3.844-.464-3.844-.464v7.892h5.492c2.068 0 3.745-1.677 3.745-3.745V.047H3.768"/>
        <path id="ges81kfxzj" d="M3.77.047C1.703.047.027 1.724.027 3.792v4.903c.949-.814 2.59-1.322 5.256-1.202 1.427.063 2.94.446 2.94.446v1.586c-.757-.384-1.666-.74-2.836-.829-2.023-.152-3.24.836-3.24 2.587 0 1.75 1.217 2.738 3.24 2.584 1.17-.087 2.09-.452 2.836-.827v1.585s-1.513.383-2.94.448c-2.666.12-4.307-.389-5.256-1.203v8.647h5.493c2.068 0 3.744-1.677 3.744-3.745V.047H3.771"/>
        <path id="l9q8u3x7zm" d="M2.995.94c0-.495-.346-.827-.754-.896C2.203.037 2.1.027 2.028.027H.063v1.824h1.965c.071 0 .175-.01.213-.017.408-.069.754-.4.754-.895"/>
    </defs>
    <g fill="none" fill-rule="evenodd">
        <g>
            <g>
                <path fill="#FFF" stroke="#FFF" stroke-width=".5" d="M1.538.25c-.36 0-.687.126-.923.332-.223.195-.365.464-.365.763v23.31c0 .3.142.568.365.763.236.206.563.332.923.332h36.924c.36 0 .687-.126.923-.332.223-.195.365-.464.365-.763V1.345c0-.3-.142-.568-.365-.763-.236-.206-.563-.332-.923-.332H1.538z" transform="translate(-1022 -2399) translate(1022 2399)"/>
                <g>
                    <path fill="#FFFFFE" d="M28.462 26H0V5.25C0 2.35 2.347 0 5.243 0h28.462v20.75c0 2.9-2.348 5.25-5.243 5.25z" transform="translate(-1022 -2399) translate(1022 2399) translate(3)"/>
                    <g transform="translate(-1022 -2399) translate(1022 2399) translate(3) translate(24.362 13.432)">
                        <mask id="0hsrxw1itc" fill="#fff">
                            <use xlink:href="#ben916gapa"/>
                        </mask>
                        <path fill="url(#ss41prey3b)" d="M.063 1.981H2.23c.068 0 .197-.01.258-.024.416-.09.763-.46.763-.963 0-.503-.347-.873-.763-.963C2.428.017 2.3.006 2.231.006H.063v1.975" mask="url(#0hsrxw1itc)"/>
                    </g>
                    <g>
                        <g transform="translate(-1022 -2399) translate(1022 2399) translate(3) translate(2.364 1.182) translate(20.715)">
                            <mask id="tpvcxb31hf" fill="#fff">
                                <use xlink:href="#wul6uqa9yd"/>
                            </mask>
                            <path fill="url(#ep8faqrgee)" d="M3.774.047C1.706.047.029 1.724.029 3.792v3.89h5.3c.122 0 .272.009.366.013 1.2.06 2.084.677 2.084 1.746 0 .84-.605 1.558-1.705 1.72v.042c1.215.084 2.146.753 2.146 1.807 0 1.14-1.022 1.873-2.383 1.873H.03v7.634h5.493c2.068 0 3.745-1.677 3.745-3.745V.047H3.774" mask="url(#tpvcxb31hf)"/>
                        </g>
                        <g transform="translate(-1022 -2399) translate(1022 2399) translate(3) translate(2.364 1.182)">
                            <mask id="bba3j0ciei" fill="#fff">
                                <use xlink:href="#xhk8o6l53g"/>
                            </mask>
                            <path fill="url(#a1bzv6ydxh)" d="M3.768.047C1.699.047.023 1.724.023 3.792v9.249c1.05.508 2.135.84 3.24.84 1.294 0 2.006-.79 2.006-1.854V7.682h3.22v4.345c0 1.7-1.043 3.062-4.622 3.062-2.155 0-3.844-.464-3.844-.464v7.892h5.492c2.068 0 3.745-1.677 3.745-3.745V.047H3.768" mask="url(#bba3j0ciei)"/>
                        </g>
                        <g transform="translate(-1022 -2399) translate(1022 2399) translate(3) translate(2.364 1.182) translate(10.358)">
                            <mask id="cvrbk9o5ol" fill="#fff">
                                <use xlink:href="#ges81kfxzj"/>
                            </mask>
                            <path fill="url(#g5dzhz55ck)" d="M3.77.047C1.703.047.027 1.724.027 3.792v4.903c.949-.814 2.59-1.322 5.256-1.202 1.427.063 2.94.446 2.94.446v1.586c-.757-.384-1.666-.74-2.836-.829-2.023-.152-3.24.836-3.24 2.587 0 1.75 1.217 2.738 3.24 2.584 1.17-.087 2.09-.452 2.836-.827v1.585s-1.513.383-2.94.448c-2.666.12-4.307-.389-5.256-1.203v8.647h5.493c2.068 0 3.744-1.677 3.744-3.745V.047H3.771" mask="url(#cvrbk9o5ol)"/>
                        </g>
                    </g>
                    <g transform="translate(-1022 -2399) translate(1022 2399) translate(3) translate(24.362 10.473)">
                        <mask id="wnovmmv7uo" fill="#fff">
                            <use xlink:href="#l9q8u3x7zm"/>
                        </mask>
                        <path fill="url(#24wpz11min)" d="M2.995.94c0-.495-.346-.827-.754-.896C2.203.037 2.1.027 2.028.027H.063v1.824h1.965c.071 0 .175-.01.213-.017.408-.069.754-.4.754-.895" mask="url(#wnovmmv7uo)"/>
                    </g>
                </g>
            </g>
        </g>
    </g>
</svg>
