<svg xmlns="http://www.w3.org/2000/svg" width="35" height="24" fill="none" viewBox="0 0 35 24">
    <rect width="34.5" height="23.5" x=".25" y=".25" stroke="#D8D8D8" stroke-width=".5" rx="1.75"/>
    <path fill="#fff" d="M7 5H27.773V18.55H7z" opacity=".01"/>
    <path fill="#FF5F00" d="M14.648 7.361H20.128V16.188H14.648z"/>
    <path fill="#EB001B" fill-rule="evenodd" d="M15.212 11.775c-.001-1.722.8-3.35 2.174-4.413-2.334-1.808-5.685-1.545-7.699.605-2.013 2.15-2.013 5.466 0 7.617 2.014 2.15 5.365 2.414 7.699.605-1.374-1.064-2.176-2.691-2.174-4.414z" clip-rule="evenodd"/>
    <path fill="#F79E1B" fill-rule="evenodd" d="M26.062 15.111v.367h-.038v-.367h-.082v-.076h.207v.076h-.087zm.402-.076v.443h-.043v-.335l-.068.287h-.047l-.068-.287v.335h-.045v-.443h.062l.073.316.073-.316h.063zM26.595 11.775c0 2.149-1.244 4.11-3.204 5.048-1.96.94-4.292.693-6.005-.636 1.373-1.064 2.175-2.69 2.175-4.413 0-1.722-.802-3.35-2.175-4.413 1.713-1.329 4.045-1.576 6.005-.636 1.96.939 3.204 2.9 3.204 5.048v.002z" clip-rule="evenodd"/>
    <path fill="#D8D8D8" d="M2 .5h31v-1H2v1zM34.5 2v20h1V2h-1zM33 23.5H2v1h31v-1zM.5 22V2h-1v20h1zM2 23.5c-.828 0-1.5-.672-1.5-1.5h-1c0 1.38 1.12 2.5 2.5 2.5v-1zM34.5 22c0 .828-.672 1.5-1.5 1.5v1c1.38 0 2.5-1.12 2.5-2.5h-1zM33 .5c.828 0 1.5.672 1.5 1.5h1C35.5.62 34.38-.5 33-.5v1zM2-.5C.62-.5-.5.62-.5 2h1C.5 1.172 1.172.5 2 .5v-1z"/>
</svg>
