<svg xmlns="http://www.w3.org/2000/svg" width="35" height="24" fill="none" viewBox="0 0 35 24">
    <path fill="#0742A6" fill-rule="evenodd" d="M15.98 15.49h-1.847l1.155-6.957h1.847L15.98 15.49zM22.675 8.703c-.364-.14-.942-.296-1.656-.296-1.824 0-3.108.947-3.116 2.302-.015.998.92 1.553 1.618 1.887.715.34.958.562.958.866-.008.466-.578.68-1.11.68-.737 0-1.132-.11-1.732-.37l-.243-.11-.259 1.56c.433.193 1.231.363 2.06.37 1.938 0 3.2-.932 3.214-2.375.008-.792-.486-1.398-1.55-1.894-.646-.318-1.042-.533-1.042-.859.008-.296.335-.599 1.064-.599.6-.015 1.042.126 1.376.267l.167.073.251-1.502zM25.98 8.533h1.43l1.49 6.956h-1.71s-.168-.8-.221-1.043h-2.371l-.388 1.043h-1.938l2.744-6.379c.19-.451.524-.577.965-.577zm-.113 2.546l-.737 1.946h1.535c-.076-.348-.426-2.013-.426-2.013l-.129-.6c-.054.155-.133.367-.186.51l-.057.157zM12.59 8.533l-1.808 4.744-.197-.962c-.335-1.11-1.383-2.316-2.554-2.916l1.657 6.083h1.953l2.903-6.949H12.59z" clip-rule="evenodd"/>
    <path fill="#0742A6" fill-rule="evenodd" d="M9.103 8.533H6.13l-.03.14c2.318.578 3.853 1.97 4.484 3.642l-.646-3.197c-.107-.444-.433-.57-.836-.585z" clip-rule="evenodd"/>
    <rect width="34.5" height="23.5" x=".25" y=".25" stroke="#D8D8D8" stroke-width=".5" rx="1.75"/>
</svg>
